<svg 
	xmlns="http://www.w3.org/2000/svg"
	viewBox="0 0 491.172 600"
	aria-label="Community Area Map of Chicago, IL, USA"
>
		<path 
			id="rodgers-park" 
			name="Rodgers Park" 
			d="M309.409,0.188l0.361-0.03h0.486h7.438L323.825,0l0.711,0.158l0.586,1.587l0.594,0.952l0.469,3.339h-0.469l0.945,1.588v1.745
			l0.586,1.587l0.711,1.588l0.469,1.751l0.541,1.735l0.049,0.174l0.238,1.269l1.031,1.39l1.924,2.107l-0.479,0.159l0.691,0.61
			l2.975,4.628l-1.551,0.314l-0.111,0.968l0.121,1.342v0.476l0.127,0.964l0.35,1.757l0.469,1.599l0.117,1.123l-0.117,0.476
			l0.594,1.599l0.117,0.641l0.469,0.641l0.477,1.281l-1.18-0.158h-1.539l-1.648,0.159l-0.936,0.012l-1.541-0.012h-1.539h-1.414
			h-1.412h-1.307h-1.648l-1.295,0.158h-1.424l-1.297,0.157l-0.232,0.164h-1.775l-0.467-0.164h-1.531l-1.422,0.164l-0.352,0.158
			h-0.469l-1.539-0.158l-1.414-3.816l-1.773-6.191l-0.469-1.43l-0.828-1.902l-0.469-1.43l-0.117-0.479l-0.711-2.066l-0.594-2.224
			l-0.469-1.587l-0.469-1.745l-0.711-2.86l-0.477-1.587l-0.234-2.066l-0.234-2.545l-0.234-2.224h2.125l1.414-0.157h1.414h1.539
			l0.234,0.157l1.297,0.321l0.477,0.158h0.82h0.711h2.953l0.818-0.158l-2.357-2.066l-2.287-2.466L309.409,0.188z">
	
		</path>
		<path 
			id="west-ridge" 
			name="West Ridge" 
			d="M271.776,17.99l0.834,0.116l0,0v-1.43l0.117-1.587l0.117-1.43v-1.43v-1.43v-1.43l0.117-1.43l-0.117-1.43l2.594-0.315l2.953-0.158
			h2.71l2.603-0.164l2.71,0.164l1.134,0.073l1.819-0.236h1.892l3.421-0.091l1.54-0.042l0.486-0.03l1.044,0.006h1.53l2.008,0.157
			l0.234,2.224l0.234,2.545l0.234,2.066l0.477,1.587l0.711,2.86l0.469,1.745l0.469,1.587l0.594,2.224l0.711,2.066l0.117,0.479
			l0.469,1.43l0.828,1.902l0.469,1.43l1.773,6.191l1.414,3.816l1.539,0.158h0.469l0.352-0.158l-0.037,1.424l0.027,1.902l0.01,1.914
			l0.162,4.144l0.08,1.569l-0.379,0.066l-0.404,0.055l-1.891-0.006l-1.666,0.042l-1.801,0.006l-8.734,0.157l-1.297,0.158
			l-1.413-0.158l-0.126,3.174v2.859l0.126,3.017l0.234,2.858l-1.423,0.158l-1.414-0.158l-1.413,0.158h-1.413h-1.18h-1.657h-1.53
			h-1.423h-1.413l-1.414-0.158l-1.54,0.158h-1.413l-1.18,0.157l-0.586,0.158l-1.539-0.158l-2.711-11.586l-0.477-2.065l-1.531-8.735
			l1.234-0.14l0.18-3.192l-0.137-17.84L271.776,17.99z">
		</path>
		<path 
			id="uptown"
			name="Uptown"
			d="M336.34,73.841l3.422-0.157h0.945l0.82-0.157l0.828-0.321l0.945-0.315l2.836-1.114l0.469,1.908l0.594,6.51l1.764,3.651
			l0.461,0.793l0.369,0.636l1.412,1.429l2.242,2.38l2.125,0.951l3.539,1.114l4.25,0.315l0.504,3.366l0.09,0.6l-1.773,1.114
			l-3.656,3.493l-1.891,0.793l-1.773-0.321l-1.998-0.951v-1.114l0.818-0.315l1.18,0.793l1.422,0.158l1.297-0.636l1.648-1.744
			l-0.117-1.108l-1.062-0.164l-4.602,0.636l-1.891,0.793v1.586l0.594,0.636l-0.232,3.336l1.178,6.187l-4.016-0.157l-0.701-0.158
			l-0.479,0.158l-1.646,0.157h-1.424l-2.125-0.157l-1.178,0.157l-1.766,0.157l-2.836-0.157l-1.766,0.157h-0.828h-3.188l-3.305-0.157
			l-1.414-3.015L325.598,104l-0.35-0.95l-0.479-1.271l-0.352-1.429l-0.35-1.586l-0.479-1.429l-2.125,0.157l-1.891,0.158h-1.881
			h-1.773h-1.766l-0.127-2.858l-0.115-3.015v-2.852v-2.858l-0.352-4.765v-2.538v-1.429l-0.117-1.429v-1.587h2.826l2.721-0.157h1.529
			h4.25h1.414l1.422-0.164h1.414h1.531l1.305-0.158h1.062h1.648H336.34z">
		</path>
		<path id="lincoln-square" name="Lincoln Square" d="M295.507,51.299l1.413,0.158l1.297-0.158l8.734-0.157l1.801-0.006l1.666-0.042l1.891,0.006l0.404-0.055l0.379-0.066v3.973v2.538
			v3.967l0.117,1.417v1.441v1.429l0.117,1.429l-0.117,1.429l0.234,1.429l0.117,1.429l-0.117,1.587v1.271v1.587l0.117,1.429v1.429
			v2.538l0.352,4.765v2.858v2.852l0.115,3.015l0.127,2.858h-0.477h-0.352h-0.711l-0.945,0.163h-1.883h-1.656h-1.891h-0.945
			l-0.938,0.158h-1.891h-1.539h-1.297H298.1l-1.296-0.158l-1.423,0.158l-1.531,0.157h-0.711h-0.585l-1.413-0.157l-1.54,0.157
			l-0.468-1.429l-0.479-1.586l-1.529-1.907l-0.234-0.636l-1.297-1.586l-0.711-0.95l-0.352-0.315l-0.36-0.479l-0.819-0.951
			l-0.945-1.75l-3.07-5.552l-0.828-2.223l-0.469-3.016l-2.836-12.227l1.539,0.157l0.586-0.157l1.18-0.157h1.413l1.54-0.158
			l1.414,0.158h1.413h1.423h1.53h1.657h1.18h1.413l1.413-0.158l1.414,0.158l1.423-0.158l-0.234-2.859l-0.126-3.016v-2.859
			L295.507,51.299z">
		</path>
		<path 
			id="north-center" 
			name="North Center"
			d="M308.131,97.813h1.656h1.883l0.945-0.163h0.711h0.352h0.477v2.857v3.015l0.117,2.857v2.857l0.117,2.857l0.117,3.014l0.117,2.857
			v2.693l-0.117,0.799l0.117,2.378v1.265v0.957l0.234,1.107l-0.117,0.793l-0.117,1.749l0.117,1.265l0.117,1.428v0.478v0.95
			l0.232,1.586v1.428l0.244,1.749h-0.477l0.232,4.599l-0.232,0.95h-1.648h-0.477h-0.703l-2.836,0.158l-0.945-0.158h-2.125
			l-2.242,0.158l-0.945-1.743l-2.477-0.792l-2.836-3.649l-2.711-1.428l-0.594-1.586l-2.115-2.378l-3.188-5.235l-1.18-6.028
			l-0.595-6.035l2.593-5.708l0.055-2.857l0.045-2.857l0.027-1.586l-0.127-1.429l-0.117-1.429l-0.116-1.429l1.54-0.157l1.413,0.157
			h0.585h0.711l1.531-0.157l1.423-0.158l1.296,0.158h1.531h1.297h1.539h1.891l0.938-0.158h0.945H308.131z">
		</path>
		<path 
			id="lake-view" 
			name="Lake View" 
			d="M356.518,118.917l5.898,8.728l-1.297,0.479l-0.703-1.429l-0.945,0.472l-0.828-0.157l-1.656-4.6l-2.711-0.636l-1.18-1.428
			l-0.232-0.315l-1.18-0.793l0.35,0.793l0.469,0.472l1.656,1.75l-0.35,1.9l0.584,1.429l1.297,1.428l0.361,2.221l0.701,1.271
			l0.711,1.108l0.586,0.635l1.656-0.793l0.469-2.221h0.477h0.469l0.234,2.221l2.008,5.556l0.945,2.851l1.18,2.221l-0.342,0.581
			l-0.127,0.212l-0.594,0.478l-0.828,0.157l-0.938-0.157l-0.242-0.478l-1.648,0.163l-2.242,0.158l-1.891-0.158h-1.773l-2.242,0.158
			h-1.414h-0.35l-0.947,0.157l-1.656-0.157l-1.998,0.157h-1.18h-1.539l-1.414,0.157h-1.531h-1.422l-0.469,0.164h-0.945h-1.531
			h-0.711h-0.594h-2.711l-1.656,0.157h-1.297h-1.414h-1.414h-1.422h-1.414l-1.529,0.157h-1.297h-1.424h-1.529l-2.953,0.157
			l0.232-0.95l-0.232-4.6h0.477l-0.244-1.749v-1.428l-0.232-1.586v-0.95v-0.478l-0.117-1.428l-0.117-1.265l0.117-1.749l0.117-0.793
			l-0.234-1.107v-0.957v-1.265l-0.117-2.379l0.117-0.799v-2.693l-0.117-2.857l-0.117-3.015l-0.117-2.857v-2.857l-0.117-2.857v-3.015
			V97.65h1.766h1.773h1.881l1.891-0.158l2.125-0.157l0.479,1.429l0.35,1.586l0.352,1.429l0.479,1.271l0.35,0.95l0.828,1.586
			l1.414,3.015l3.305,0.157h3.188h0.828l1.766-0.157l2.836,0.157l1.766-0.157l1.178-0.157l2.125,0.157h1.424l1.646-0.157
			l0.479-0.158l0.701,0.158l4.016,0.157l0.352,1.429l0.711,2.542l1.703,4.564L356.518,118.917z">
		</path>
		<path 
			id="lincoln-park" 
			name="Lincoln Park"
			d="M337.754,143.671h0.945l0.469-0.164h1.422h1.531l1.414-0.157l0,0h1.539h1.18l1.998-0.157l1.656,0.157l0.947-0.157h0.35h1.414
			l2.242-0.158h1.773l1.891,0.158l2.242-0.158l1.648-0.163l0.242,0.478l0.938,0.157l0.828-0.157l0.477,0.792l-0.242,4.285
			l0.242,1.428l1.648,3.491l1.656,12.531l9.203,6.976l-4.963,4.283l-1.646,0.157l-0.594,0.157l-0.703-0.314l-0.828,0.157
			l-1.414,0.157h-1.539l-1.766,0.157h-1.062l-0.711,0.164h-1.648h-1.305h-1.18l-1.18,0.157h-1.062h-1.414h-0.584h-0.945h-0.596
			l-0.467,0.472h-1.424h-0.242h-0.82l-1.297-0.315h-0.701h-0.361h-0.701l-0.479-0.157l-0.35,0.157h-1.062l-1.414-0.157l-1.891,0.157
			l-2.359,0.157h-1.062l-1.414,0.321l-1.656,0.157l-2.477-6.981l-5.43-0.792l-1.18-2.377l-0.711-2.063l-0.467-0.157l-0.875-1.379
			l-1.043-1.658l-1.387-2.196l-0.479-0.635l-2.242-0.315l-1.18-0.32l-2.008-1.707l-1.529-1.307l-0.469-1.265l0.352-1.428
			l-0.594-1.428l-2.242-1.428l-1.297-0.478l-1.773-0.635l-0.137-0.284l-0.277-0.569l-1.352-2.796l-1.891-2.221l2.242-0.158h2.125
			l0.945,0.158l2.836-0.158h0.703h0.477h1.648l2.953-0.157h1.529h1.424h1.297l1.529-0.157h1.414h1.422h1.414h1.414h1.297
			l1.656-0.157h2.711h0.594h0.711H337.754z">
		</path>
		<path id="near-north-side" 
			name="Near North Side"
			d="M367.26,177.451l1.414-0.157l0.828-0.157l0.703,0.314l0.594-0.157l1.646-0.157l-0.818,2.377l1.035,6.201l0.496,2.994l0.719,1.772
			l0.693,1.718l3.666,0.792l1.18,2.22l0.467,0.157l2.604,5.075l2.502,5.05l0.324,0.659l1.656-0.314l2.359-4.439l2.711-0.164h1.18
			l0.359-0.157l0.234,0.321l0.586-0.164l0.125-0.157l0.703,0.157h3.305l0.117,4.76l-5.305,0.193l-3.43,0.121v1.584l13.102-0.157
			l0.115,1.27h-2.709l-0.117,0.314l-10.031,0.478v2.534h-2.125l-0.359-2.056l-3.061,0.157h-4.25l-0.117,0.157h-2.838l-0.115,0.478
			l7.32-0.163h1.764l0.117,0.956v0.792l-1.766,1.107l-7.553-0.472l-4.602-0.321l-2.836,1.427l-1.531,0.478l-1.656,0.472h-1.891
			l-1.766-0.157l-1.773,0.157h-2.125l-2.242,2.062l-2.008-4.911l-1.766-3.175l-1.412-2.056l-2.242-3.018l-0.244-3.169l-0.584-1.584
			l-3.666-0.95l-4.006-2.54l-1.891-0.792l-3.07-1.107l-2.477-4.439l-0.586-5.553l0.82-2.692l0.828-2.698l1.656-0.157l1.414-0.321
			h1.062l2.359-0.157l1.891-0.157l1.414,0.157h1.062l0.35-0.157l0.479,0.157h0.701h0.361h0.701l1.297,0.315h0.82h0.242h1.424
			l0.467-0.472h0.596h0.945h0.584h1.414h1.062l1.18-0.157h1.18h1.305h1.648l0.711-0.164h1.062l1.766-0.157H367.26z">
		</path>
		<path 
			id="edison-park" 
			name="Edison Park"
			d="M145.861,7.145l1.53-0.157h1.414h1.54h1.414h1.531l1.54-0.315h1.531l1.296,0.158v1.587v1.109l-0.117,2.86l0.117,2.86v3.018
			l-0.234,1.43v2.702l-0.117,1.266l0.351,1.751l-0.117,1.272l-0.117,1.587l0.117,1.266l-0.234,3.017l0.234,2.86l-0.117,2.065
			l0.117,1.272l-0.117,1.745v0.951l0.117,1.593l0.117,0.793l-0.117,0.315h-0.702l-3.547-0.158l0.117-1.272v-1.272h-1.53h-2.477
			l-3.655,0.164h-2.602l-2.008,0.157l-1.242,0.042l-0.171-1.157l-0.117-1.745v-0.636v-2.381l0.117-0.794l-0.117-0.479v-1.43
			l0.117-0.793l-0.117-0.636l0.162-1.291l0.288-0.249l-0.333-0.842l0.117-2.224l0.117-2.066v-0.63l-0.117-5.877l0.91,0.066
			l1.215,0.091l0.714-0.012l-0.042-0.535l-0.556-0.088v-0.479v-1.43v-1.43v-1.424l-0.117-0.8h-0.711l-0.937-0.473l-0.36-2.703V7.145
			h0.828h2.242l1.414,0.158L145.861,7.145z">
			
		</path>
		<path id="A1X" d="M137.533,63.515l-2.136,0.008l0.052,1.745l-3.284,0.001l0-2.7l-2.378,0.007l-1.189,0.03l-1.042-0.039l-1.172,0.001l0.002,0.636
			l-0.711,0.157l-0.004,1.114l-1.644,0l-0.117,2.223l0.356-0.002l0.59-0.161l-0.001,0.678l-0.474-0.042l-0.471-0.003l0,0.636
			l0.944,0.002l1.408,0.03l1.041-0.006l3.38-0.023l0.89-0.032l0.009,0.346h0.279l-0.045,1.272l0.467-0.001v0.478l-0.467,0.002
			l-0.018,0.466l0.009,0.436l-1.053,0.048h-0.594v0.793v0.951h0.36l0.117,0.479h-2.719l-2.242,0.157v0.793v0.478l2.739,0.099
			l4.993,0.134l0.965,0.026l2.075,0.06l0.081-0.453l0.016-0.375l0.027-0.272l0.198-0.963l0.045-0.636l0.072-0.478l0.018-0.69
			l0.018-0.557l0.027-0.981l0.09-1.72l0.144-1.32l0.108-1.326L137.533,63.515z"/>
		<path 
			id="norwood-park" 
			name="Norwood Park"
			d="M134.875,77.843l-1.052,0.127v0.793v0.793l-6.141,0.157l0.234-1.429l-0.702-0.157h-0.594h-0.351l0.117-1.272h-0.711l0.117-0.472
			v-0.636l-3.655,0.158v0v-0.478v0v-1.265l0.117-1.272l0,0v-0.321v0v-0.188l0,0v-0.763l-0.117-1.587v-0.479l0,0v-0.315l0,0v-0.636
			h0.478l-0.073-0.26l0.073-0.535l-0.478,0.001v-1.108v-3.186l0.027-0.479l0.09-1.417l-0.117-0.957V60.39v-1.314v-0.793l1.662,0.324
			l0.392,0.147l0.992,0.006l2.723,0.638l1.61,0.154l2.186,0.531l2.332,0.449l1.238,0.132l2.677,0.634l0.126-1.43l0.117-0.636v-1.266
			l0.117-1.429l0.585-4.288v-0.951l0.243-1.587l0.234-1.272l0.153-0.927l0.333-2.883l0.099-1.429l-0.063-1.387l1.242-0.042
			l2.008-0.158h2.602l3.655-0.164h2.477h1.53v1.272l-0.117,1.272l3.547,0.157h0.702l0.117-0.315l-0.117-0.793l-0.117-1.593v-0.951
			l0.117-1.745l-0.117-1.272l0.117-2.066l1.297,0.164l0.243-1.115l1.414-0.157l1.414,0.157l1.414-0.157l0.594,0.315l0.117,0.636
			h1.657l0.351,1.587h1.531l1.179-0.157v-1.272l2.008-0.157h1.773l2.008-0.158l1.296,0.158l0.117,0.793l0.828-0.315l2.476,1.745
			l1.414-0.158l2.836-0.951l1.531,0.157l2.008-4.447l2.242,9.051l-3.187,0.158l-0.117,1.908l1.774,0.951l1.53,0.951l1.414,0.957
			l1.062,0.473v1.587l-0.117,1.908l0.117,2.38l-0.117,1.272l0.117,1.587l-0.117,2.38v0.636l-0.117,2.859v2.701L190.233,64
			l-1.531-0.158L187.279,64h-0.702l-1.27,0.072L184.209,64l-2.71-0.158L180.085,64l-0.117,0.636v0.636v1.587v3.016v2.695
			l-0.117,2.065l0.117,0.793l-0.117,3.016l-0.126,2.858v2.858v2.065h-1.414h-1.414l-1.54,0.157h-1.414h-1.296h-1.414h-1.54h-1.297
			h-1.531h-1.422h-1.531H162.5l0,0.809l-1.297-0.016l-0.36,0.158h-1.062l-1.062-0.158l-1.531,0.158v-1.266l-0.117-1.75l0.117-1.266
			l0.117-1.429l-0.117-1.429l0.117-1.429l-0.234-1.586l-1.297,0.157h-1.422l-1.414,0.158h-1.648h-1.306h-1.531l-1.414,0.157
			l-1.422,0.164v0.951v0.315l-0.117,1.429l0.117,1.429l-0.117,0.95v0.388v0.249l-0.729,0.139l-0.918,0.182h-0.225l0.031-0.609
			l-0.283,0.022v-3.385l0.021-0.656l-0.723,0.032v-0.327v-1.108h-2.954h-2.242l-1.18,0.157l-1.18-0.157L134.875,77.843
			L134.875,77.843z">
		</path>
		<path 
			id="jefferson-park" 
			name="Jefferson Park"
			d="M186.1,41.292l3.187-0.158l0.946,0.951l1.296-0.472l1.657-0.321l1.531,0.957h4.25l0.351,2.696l-2.476,2.223l1.062,2.701
			l2.008,0.794l-0.711,1.744v0.636l0.945,1.114l3.07,0.473l2.359-2.223l2.359,1.272l1.657-0.793v-1.272l0.819,0.951l0.477,2.544
			l-0.711,0.157l0.828,1.272l1.062-0.479l2.008,4.446l1.18,3.652l0.468,0.793l1.44,3.803l1.63,4.294l-0.477-0.315v0.636l0.243,2.853
			l-0.117,1.429v1.429l0.117,1.429h2.827v1.429l0.117,1.429v1.587l0.117,1.271v1.586l-1.062-0.158l-1.765,0.158l-0.892,0.042
			l-0.882,0.115l-0.72,0.121l-0.468,0.115l-0.387,0.061l-1.846-0.297h-1.648l-0.828,0.479l-1.414-0.158l-1.306-0.163h-1.414
			l-1.648-0.158l-1.422,0.158v-1.587l-3.062,0.164h-3.188l-3.665,0.158l-1.414-0.158h-1.531l-1.296,0.158h-1.306h-1.648h-1.414
			h-1.54h-1.296l-1.414,0.157l-1.423-0.157v-0.636V84.16v-2.858l0.126-2.858l0.117-3.016l-0.117-0.793l0.117-2.065v-2.695v-3.016
			v-1.586v-0.636L180.085,64l1.414-0.158l2.71,0.158l1.099,0.073l1.27-0.073h0.702l1.423-0.158L190.233,64l1.296-0.158v-2.701
			l0.117-2.858v-0.636l0.117-2.38l-0.117-1.587l0.117-1.272l-0.117-2.38l0.117-1.908v-1.587l-1.062-0.473l-1.414-0.957l-1.53-0.951
			l-1.774-0.951L186.1,41.292z">
		</path>
		<path 
			id="forest-glen" 
			name="Forest Glen"
			d="M176.781,35.737l3.89-2.702l4.961-2.702l0.585-0.63l-0.117-0.479l-0.585-1.272l-1.891-2.86l-1.18-1.43l-0.351-0.472l-0.36-0.321
			l-0.585-1.266l-0.829-0.636l-1.891-3.339l2.476,0.164l3.07-0.164h1.179l1.657,0.164h1.531h0.829l1.062,0.473l0.234-4.92
			l-0.117-0.8l2.359,0.164l0.117,5.399l3.304,0.157l0.594-0.315l1.531,3.811l0.594,1.43l0.468,1.43l0.711,1.745l0.162,0.442
			l0.666,1.781l0.819,0.794l1.657,0.636l2.125,1.587l0.585-0.793l-1.648-0.951v-6.355l5.312-0.158h0.819l-0.117,0.951v0.794v1.43
			l-0.117,1.43l-0.117,1.43v1.43v1.745l-0.117,1.751l1.891,1.109l1.062,0.793l1.414,0.957l1.18,0.636l1.18,0.63l1.179,0.793
			l1.297,0.8l1.296,1.108h1.54h1.531h0.946l1.296,0.479h0.945l1.297-0.164l1.422-0.315h1.414h1.414h1.297h1.422h1.414h0.918h0.378
			h1.414l1.918,0.097l1.27,0.061l1.305-0.158h1.531l1.414,0.158l1.656-0.158h1.062h1.999h1.188l-1.891,3.017l-0.99,2.071
			l-0.424,0.63l-1.062,1.744l-0.477,1.115l-1.648,2.853h-0.711l-0.594,0.164l-1.531,2.695l-2.827,1.908l-0.594,0.315l-1.296,0.957
			l-0.117,2.853l0.234,2.859h-1.657l-1.414,0.164l-1.296-0.164h-1.414h-1.306h-2.242h-1.179l-1.297-1.429l-0.117,1.75l0.117,3.174
			v0.951l0.117,1.586v1.593v1.108l0.117,3.173l0.117,3.815v0.472v1.586v1.271l0.126,1.429v1.429l0.234,1.744l-0.477,0.158
			l-0.784-0.164l-1.458-0.309h-0.351h-0.351h-1.062l-1.423,0.158v-1.586l-0.117-1.271v-1.587l-0.117-1.429v-1.429h-2.827
			l-0.117-1.429V77.65l0.117-1.429l-0.243-2.853v-0.636l0.477,0.315l-1.63-4.294l-1.44-3.803l-0.468-0.793l-1.18-3.652l-2.008-4.446
			l-1.062,0.479l-0.828-1.272l0.711-0.157l-0.477-2.544l-0.819-0.951v1.272l-1.657,0.793l-2.359-1.272l-2.359,2.223l-3.07-0.473
			l-0.945-1.114v-0.636l0.711-1.744l-2.008-0.794l-1.062-2.701l2.476-2.223l-0.351-2.696h-4.25l-1.531-0.957l-1.657,0.321
			l-1.296,0.472l-0.946-0.951l-2.242-9.05l-2.008,4.446l-1.531-0.157l-2.836,0.951l-1.414,0.157L176.781,35.737z">
		</path>
		<path 
			id="north-park" 
			name="North Park"
			d="M252.549,41.134h1.18h0.288h1.009h1.413l1.647-0.012l1.423,0.012h1.414h0.595l0.746,0.037l1.387-0.042l1.521,0.006l1.379-0.091
			l1.773,0.073l1.332,0.018h0.352h0.477l1.531,8.735l0.477,2.066l2.711,11.586l2.836,12.227l0.469,3.016l-2.242-1.271l-1.297-0.315
			l-1.891-0.164l-1.297,0.442l-0.117,0.036l-1.413,0.636l-0.946,1.908l-1.891,0.951h-1.413l-1.774-0.158l-1.062-0.793l-1.296-0.957
			l-0.991-0.472l-0.756-0.351l-2.62-0.763l-1.062-0.315l-0.945-1.429l-1.765-0.793l-2.008,0.793l-1.297,0.158v0.951v1.271v0.636
			V79.4l0.117,2.222h-1.422h-1.531h-1.414v-0.793l-0.117-1.907h-1.423v-3.016h-1.414l-1.531,0.157l-1.422-0.157h-1.414h-1.648h-1.54
			l-1.414,0.157h-1.297h-2.359l-0.171,0.018l-1.72,0.14l-0.711-0.158h-0.468l-0.477,0.158l-0.117-3.173v-1.108v-1.593l-0.117-1.586
			V67.81l-0.117-3.174l0.117-1.75l1.297,1.429h1.179h2.242h1.306h1.414l1.296,0.164l1.414-0.164h1.657l-0.234-2.859l0.117-2.853
			l1.296-0.957l0.594-0.315l2.827-1.908l1.531-2.695l0.594-0.164h0.711l1.648-2.853l0.477-1.115l1.062-1.744l0.424-0.63l0.99-2.071
			L252.549,41.134z">
		</path>
		<path 
			id="albany-park" 
			name="Albany Park"
			d="M250.424,75.906l1.297-0.158l2.008-0.793l1.765,0.793l0.945,1.429l1.062,0.315l2.62,0.763l0.756,0.351l0.991,0.472l1.296,0.957
			l1.062,0.793l1.774,0.158h1.413l1.891-0.951l0.946-1.908l1.413-0.636l0.117-0.036l1.297-0.442l1.891,0.164l1.297,0.315
			l2.242,1.271l0.828,2.223l3.07,5.552l0.945,1.75l0.819,0.951l0.36,0.479l0.352,0.315l0.711,0.95l1.297,1.586l0.234,0.636
			l1.529,1.907l0.479,1.586l0.468,1.429l-2.944-0.157l-1.423,0.315h-1.413h-1.414h-1.539l-1.297,0.157h-1.531h-1.422h-1.414h-1.414
			h-1.414h-1.539h-1.414h-1.539h-1.414h-1.413h-1.413l-1.307,0.164h-1.53h-1.53h-1.424h-1.251l-1.458,0.157h-1.531h-1.422
			l-1.414,0.157h-1.297h-0.828l-2.71-2.379l-2.008-1.75l-1.423-1.586l-1.062-0.793l-1.414-1.266l-0.702-0.636l-0.36-0.636
			l-0.117-2.379h-1.297l-1.179,0.157h-0.711l-0.829,0.158l-1.765-0.158h-0.945h-0.468h-1.423h-0.468h-1.062l-0.711-0.157
			l-0.468,0.472l-0.234-1.744v-1.429l-0.126-1.429v-1.271v-1.586v-0.472l-0.117-3.815l0.477-0.158h0.468l0.711,0.158l1.72-0.14
			l0.171-0.018h2.359h1.297l1.414-0.157h1.54h1.648h1.414l1.422,0.157l1.531-0.157h1.414v3.016h1.423l0.117,1.907v0.793h1.414h1.531
			h1.422l-0.117-2.222v-0.636v-0.636v-1.271V75.906z">
		</path>
		<path 
			id="portage-park" 
			name="Portage Park"
			d="M191.061,86.703h1.531l1.414,0.158l3.665-0.158h3.188l3.062-0.164v1.587l1.422-0.158l1.648,0.158h1.414l1.306,0.163l1.414,0.158
			l0.828-0.479h1.648l1.846,0.297l0.387-0.061l0.468-0.115l0.72-0.121l0.882-0.115l0.892-0.042l1.765-0.158l1.062,0.158l1.423-0.158
			h1.062h0.351h0.351l1.458,0.309l0.784,0.164l0.477-0.158l-0.234,5.558l0.37,1.653l-0.018,0.478l-0.009,0.672l-0.045,0.278
			l-0.063,0.406l1.891,1.271l1.765,1.271h-0.711h-1.882l2.71,6.508l1.54,3.965l0.702,0.793v0.793v4.128l0.117,3.65l-0.09,1.308
			l-0.027,0.278l0.117,1.429l0.36,2.857l-0.243,2.857l-0.585,0.157l-0.234,0.157v2.7h0.819v3.014l-1.179-0.163l-0.703,0.163h-0.711
			l-0.946-0.163l-0.468,0.163l-1.414-0.163l-2.953,0.321h-2.836h-2.827h-2.953h-2.954h-2.827l-1.414,0.157l-1.657-0.157
			l-1.296,0.157l-1.414-0.157l-1.54,0.157h-1.414l-1.54,0.157h-1.296h-1.414h-1.53h-1.423h-1.414v-1.428v-1.428v-1.422l-0.117-1.428
			v-1.429l-0.117-1.586l-0.117-1.428v-1.428v-1.429v-1.429l-0.117-1.271l-0.117-1.586l0.117-1.586l-0.117-1.429v-1.428l-0.126-1.429
			h-1.414l-1.414,0.157h-1.414h-1.54H186.1h-1.18h-0.711l-2.593,0.157l-0.117-1.743l-0.117-4.123l-0.234-5.558v-3.015l-0.243-1.907
			l0.036-0.224l0.324-1.998V90.19l-0.117-1.429v-1.744l1.414-0.157h1.296h1.54h1.414h1.648h1.306L191.061,86.703z">			
		</path>
		<path 
			id="irving-park" 
			name="Irving Park"
			d="M227.527,87.968l0.468-0.472l0.711,0.157h1.062h0.468h1.423h0.468h0.945l1.765,0.158l0.829-0.158h0.711l1.179-0.157h1.297
			l0.117,2.379l0.36,0.636l0.702,0.636l1.414,1.266l1.062,0.793l1.423,1.586l2.008,1.75l2.71,2.379h0.828h1.297l1.414-0.157h1.422
			h1.531l1.458-0.157h1.251h1.424h1.53h1.53l1.307-0.164h1.413h1.413h1.414h1.539h1.414h1.539h1.414h1.414h1.414h1.422h1.531
			l1.297-0.157h1.539h1.414h1.413l1.423-0.315l2.944,0.157l0.116,1.429l0.117,1.429l0.127,1.429L289.934,104l-0.045,2.857
			l-0.055,2.857l-2.593,5.708l0.595,6.035l-2.125-0.164h-1.306h-1.53h-1.414l-0.514,0.061l-0.9,0.103h-1.422h-1.414h-1.414h-1.305
			l-1.414,0.157h-1.18h-1.765l-1.657,0.157l-1.297-0.157l-1.539,0.157h-1.414l-1.413-0.157l-0.945,0.315h-0.712l-0.468-0.158h-0.595
			h-0.233l-2.71,0.158h-1.657l-1.296,0.157l-1.297-0.157l-1.773,0.157l0.116,1.271l0.117,1.114v0.472l-0.117,0.956l0.117,1.265
			l0.126,0.636l0.117,2.542l-0.117,0.629l0.117,1.271l-0.117,1.271l-2.836,0.157h-2.836h-1.18h-1.179l-0.819,0.315l-0.711,0.163
			l-0.829-0.321h-1.062h-1.53l-1.423,0.158h-1.648l-1.657,0.163v-3.014h-0.819v-2.7l0.234-0.157l0.585-0.157l0.243-2.857
			l-0.36-2.857l-0.117-1.429l0.027-0.278l0.09-1.308l-0.117-3.65v-4.128v-0.793l-0.702-0.793l-1.54-3.965l-2.71-6.508h1.882h0.711
			l-1.765-1.271l-1.891-1.271l0.063-0.406l0.045-0.278l0.009-0.672l0.018-0.478l-0.37-1.653L227.527,87.968z">
		</path>
		<path 
			id="dunnig" 
			name="Dunning"
			d="M122.019,101.3l4.952-0.157l0.027,0.164l0.802,5.709l0.234,2.857v2.7h1.306l1.531,0.157h1.53l1.306-0.157l4.952-0.164h0.829
			l1.531-0.157l1.422,0.157h1.414l1.414-0.157h1.414l1.422-0.157h1.531h1.414h1.54H154h1.531l1.423-0.158l0.117-1.75l6.96-4.443
			l1.296-0.951l1.54-0.95l1.297-0.793l1.414-1.114l1.774-0.95l1.062-0.793l2.71-0.157l1.657,0.157h1.648l1.422,0.158h1.297
			l0.234,5.558l0.117,4.123l0.117,1.743l2.593-0.157h0.711h1.18h1.062h1.54h1.414l1.414-0.157h1.414l0.126,1.429v1.428l0.117,1.429
			l-0.117,1.586l0.117,1.586l0.117,1.271v1.429v1.429v1.428l0.117,1.428l0.117,1.586v1.429l0.117,1.428v1.422v1.428v1.428h-2.953
			l-2.71,0.164h-2.953l-2.827,0.157l-1.54-0.157l-1.531,0.157h-1.296h-1.117h-0.423h-1.297h-1.414l-1.414,0.157h-1.657h-1.296h-1.54
			h-1.53l-2.008,0.158h-1.765h-0.477h-1.062h-0.351h-1.18h-0.351l-0.567,0.066l-0.738,0.091v2.384l0.117,3.171l-1.531-0.157h-1.414
			h-1.423l-1.414,0.157l-1.531-0.157l-1.54,0.157h-1.414l-1.414,0.157v-2.856l-0.117-2.856h-1.422l-1.414,0.164h-1.531h-1.423
			l-1.531,0.157h-1.414h-1.296h-1.423l-1.414,0.157l-1.531-0.157l-1.54,0.157h-1.414h-1.414h-1.54l-1.297-0.157v0v-2.542
			l-0.117-2.221l-0.234-3.486l-0.117-3.014l-1.422-0.164l0.126-2.693l-0.126-2.857l-0.351-2.857l0.117-3.014v0v-2.857v0v-3.172
			L122.019,101.3z">
		</path>
		<path 
			id="montclare" 
			name="Montclare"
			d="M157.656,135.416l0.738-0.091l0.567-0.066h0.351h1.18h0.351h1.062h0.477h1.765l2.008-0.158h1.53h1.54h1.296h1.657l1.414-0.157
			h1.414h1.297l0.243,3.014v2.856v2.856l0.117,2.85l0.234,11.267l0.468,8.719l1.179,1.906l-7.077-3.963l-2.242-1.113l-2.359-1.107
			l-1.179-0.635l-0.829-0.321l-2.359-0.95l-0.711-0.478l-1.414-0.472l-2.125-1.113l-0.117-1.585l-0.117-1.107v-1.591v-1.265
			l-0.117-1.113v-1.9v-0.793l0.117-2.063l-0.117-0.157v-2.699v-0.314l-0.126-2.699l-0.117-3.171V135.416z">
		</path>
		<path 
			id="belmont-cragin" 
			name="Belmont Cragin"
			d="M216.786,134.309h2.953h2.827h2.836l2.953-0.321l1.414,0.163l0.468-0.163l0.946,0.163h0.711l0.703-0.163l1.179,0.163l0.243,2.857
			l0.117,2.693v3.171l0.117,2.699v1.585l0.117,1.585v1.749l0.117,1.9l-0.117,1.585l0.117,1.591l-0.117,1.428l0.117,2.692v1.113
			l0.117,1.9l-0.117,1.585l0.234,1.271l0.117,1.585v1.113v1.265v0.272v1.791l0.243,2.063l-4.844-0.792l-0.819-0.478l-2.953-0.635
			l-1.062-0.157l-3.899,0.157l-3.655-0.629l-2.125-0.635l-1.891-0.478l-1.81-0.2l-3.971-0.436h-1.765l-5.556,0.157l-6.132-0.157
			l-8.734,0.157h-2.836l-4.484-1.107l-1.179-1.906l-0.468-8.719l-0.234-11.267l-0.117-2.85v-2.856v-2.856l-0.243-3.014h0.423h1.117
			h1.296l1.531-0.157l1.54,0.157l2.827-0.157h2.953l2.71-0.164h2.953h1.414h1.423h1.53h1.414h1.296l1.54-0.157h1.414l1.54-0.157
			l1.414,0.157l1.296-0.157l1.657,0.157l1.414-0.157h2.827H216.786z">
		</path>
		<path 
			id="hermosa" 
			name="Hermosa" 
			d="M233.776,134.151l1.657-0.163h1.648l1.423-0.158h1.53h1.062l0.829,0.321l0.468,1.429l0.828,1.107l1.18,3.014l1.296,2.856
			l0.711,2.536l0.828,1.592l0.405,1.265l1.009,3.177l1.656,4.278l0.703,1.428l0.711,0.164l0.352,1.585l0.233,0.792l-0.233,0.472
			h-0.352l0.469,1.113l-0.234,1.428l0.234,1.428l-0.234,1.9l2.242-0.314l0.684,1.537l0.379,0.841l-0.234,0.478l0.234,2.692h1.062
			l0.351,1.113l0.828,1.899l-2.358-0.157h-1.297h-1.423l-1.296,0.157l-1.531,0.164h-1.539h-1.297l-1.414-0.164h-1.648l-1.422,0.321
			l-1.18-0.157l-3.07-0.164l-1.647-0.157l-0.946-0.115l-0.351-0.042l-0.243-2.063v-1.791v-0.272v-1.265v-1.113l-0.117-1.585
			l-0.234-1.271l0.117-1.585l-0.117-1.9v-1.113l-0.117-2.692l0.117-1.428l-0.117-1.591l0.117-1.585l-0.117-1.9v-1.749l-0.117-1.585
			v-1.585l-0.117-2.699v-3.171l-0.117-2.693L233.776,134.151z">		
		</path>
		<path id="avondale" name="Avondale" d="M283.469,144.778l-1.539-0.157h-1.414h-1.414h-1.422l-1.531,0.157l-1.297,0.314l-1.539-0.314h-1.414h-1.531h-1.296l-2.953,0.157
			h-1.414h-1.657h-1.296l-1.296,0.157h-1.541h-1.296l-1.413,0.164l-1.54-0.164l-1.297,0.164h-1.53h-2.836l-2.594-0.164l-0.711-2.536
			l-1.296-2.856l-1.18-3.014l-0.828-1.107l-0.468-1.428l0.711-0.164l0.819-0.315h1.179h1.18h2.836l2.836-0.157l0.117-1.271
			l-0.117-1.271l0.117-0.629l-0.117-2.542l-0.126-0.636l-0.117-1.265l0.117-0.956v-0.472l-0.117-1.114l-0.116-1.271l1.773-0.157
			l1.297,0.157l1.296-0.157h1.657l2.71-0.158h0.233h0.595l0.468,0.158h0.712l0.945-0.315l1.413,0.157h1.414l1.539-0.157l1.297,0.157
			l1.657-0.157h1.765h1.18l1.414-0.157h1.305h1.414h1.414h1.422l0.9-0.103l0.514-0.061h1.414h1.53h1.306l2.125,0.164l1.18,6.028
			l3.188,5.235l2.115,2.378l0.594,1.586l2.711,1.428v3.334l0.126,1.422v1.428l-1.54,0.163h-1.414h-1.413h-1.423l-1.413,0.158
			l-0.234,0.157l-0.478,0.157h-1.296l-1.062-0.472l-1.18,0.158h-1.53L283.469,144.778z">
		</path>
		<path 
			id="logan-square" 
			name="Logan Square"
			d="M283.469,144.778l1.297-0.157h1.53l1.18-0.158l1.062,0.472h1.296l0.478-0.157l0.234-0.157l1.413-0.158h1.423h1.413h1.414
			l1.54-0.163v-1.428l-0.126-1.422v-3.334l2.836,3.649l2.477,0.792l0.945,1.743l1.891,2.221l1.352,2.796l0.277,0.569l0.137,0.284
			l1.773,0.635l1.297,0.478l2.242,1.428l0.594,1.428l-0.352,1.428l0.469,1.265l1.529,1.307l2.008,1.707l1.18,0.32l2.242,0.315
			l0.479,0.635l1.387,2.196l1.043,1.658l0.875,1.379l0.467,0.157l0.711,2.063l1.18,2.377l-2.242,0.956l-0.711,0.314l-0.945,0.478
			h-0.701h-0.596l-1.529,0.157h-1.424h-1.414h-1.529h-1.297l-1.539,0.157h-1.414l-1.414-0.157l0.117-0.95l-3.07,0.157l-0.117-1.113
			l0.117,1.113l-2.719,0.478l0.125,0.95v0.792l-0.477-0.32l-0.352-0.315l-0.234-0.478l-0.828,0.164h-1.062h-2.719h-1.648h-1.296
			h-1.54h-1.414l-0.116-1.113l0.116,1.113l-1.413,0.157h-1.413h-1.423l-1.647-0.157l-1.062,0.157h-1.18h-1.423h-1.53h-0.469v0.314
			h-0.477l-1.892-0.472l-1.53,0.157l-2.008,0.157l-0.117,0.157h-1.891l-1.883,0.158h-1.891l-1.53-0.158l-0.36,0.024l-2.125,0.133
			l-1.53-0.158l-0.234-0.157l-1.423,0.157l-1.413-0.157l-1.414,0.157h-1.296l-0.712,0.158l-0.828-1.9l-0.351-1.113h-1.062
			l-0.234-2.692l0.234-0.478l-0.379-0.841l-0.684-1.537l-2.242,0.314l0.234-1.9l-0.234-1.428l0.234-1.428l-0.469-1.113h0.352
			l0.233-0.472l-0.233-0.792l-0.352-1.585l-0.711-0.164l-0.703-1.428l-1.656-4.278l-1.009-3.177l-0.405-1.265l-0.828-1.592
			l2.594,0.164h2.836h1.53l1.297-0.164l1.54,0.164l1.413-0.164h1.296h1.541l1.296-0.157h1.296h1.657h1.414l2.953-0.157h1.296h1.531
			h1.414l1.539,0.314l1.297-0.314l1.531-0.157h1.422h1.414h1.414L283.469,144.778z">
		</path>
		<path 
			id="humboldt-park" 
			name="Humboldt Park"
			d="M263.994,173.803l1.53,0.157l2.125-0.133l0.36-0.024l1.53,0.158h1.891l1.883-0.158h1.891l0.117-0.157l2.008-0.157l1.53-0.157
			l1.892,0.472h0.477l0.117,0.321v2.535l-0.243,2.698h-0.468h-1.18l-1.414-0.321l-1.422,0.321l-1.414,0.157v1.271v1.585
			l-0.117,1.428l0.117,1.427l0.117,1.428v1.428l-0.117,1.421l0.234,1.427v1.428l0.117,1.428l-0.117,1.427l0.117,1.427h4.25h0.828
			h0.351l0.243,1.905l-0.359,2.377v1.585h0.711l2.008-0.157h0.819h1.423h1.647v1.427l-0.117,0.635l3.07,1.584l1.53,0.949
			l1.307,0.478v1.106l0.09,1.82l0.026,0.399v1.27l0.234,1.905v0.629l-3.655,0.164l-2.369-0.635h-2.943l-2.719,0.157h-0.703h-2.368
			l-1.296-0.157h-1.531h-1.539h-1.531l-2.71,0.157h-2.954h-1.287h-0.243l-1.891,0.157h-1.062l-1.296,0.157l-1.424-0.157h-1.413
			l-1.647-0.472l-1.306,0.95h-0.937h-0.36l-1.296-0.321l-3.891,0.321h-1.773h-5.781l-2.953-0.157l-2.953,0.157v-4.596v-0.321
			l0.117-2.376l-0.351-3.49l-0.252-0.961l-0.099-1.416l-0.117-2.855l0.117-1.427l-0.36-1.27v-4.44l-0.117-9.987v-2.063l0.117-3.491
			l0.243-2.535l0.351,0.042l0.946,0.115l1.647,0.158l3.07,0.163l1.18,0.157l1.422-0.32h1.648l1.414,0.163h1.297h1.539l1.531-0.163
			l1.296-0.158h1.423h1.297l2.358,0.158l0.712-0.158h1.296l1.414-0.157l1.413,0.157l1.423-0.157L263.994,173.803z">
		</path>
		<path 
			id="west-town" 
			name="West Town"
			d="M315.569,172.854L315.569,172.854h1.529h1.414h1.424l1.529-0.157h0.596h0.701l0.945-0.478l0.711-0.314l2.242-0.956l5.43,0.792
			l2.477,6.981l-0.828,2.698l-0.82,2.692l0.586,5.553l2.477,4.439l3.07,1.107l1.891,0.792l4.006,2.54l3.666,0.95l0.584,1.584
			l0.244,3.169l2.242,3.018l1.412,2.056l1.766,3.175l-0.703,0.157h-1.295l-0.596-0.157h-1.412l-1.658,0.157l-1.412,0.472h-0.352
			h-1.891h-0.234h-0.596l-0.818-0.472l-1.305,0.157h-1.414h-1.414l-1.422-0.157l-1.297,0.157h-1.414l-1.297-0.157l-0.594,0.157
			l-1.531,0.314l-2.242-0.314l-1.18,0.157l-0.711-0.157h-1.18h-1.297l-1.062,0.314l-2.008,0.164l-1.062-0.164l-1.18-0.157h-0.945
			h-1.295l-1.297,0.321l-2.721,0.157l-1.412-0.321l-1.531,0.321l-3.188-0.157l-2.953-0.164l-1.414,0.164h-1.414l-1.422,0.157
			l-1.297-0.157l0.117,0.792l-1.414,0.472h-4.483v-0.629l-0.234-1.905v-1.27l-0.026-0.399l-0.09-1.82v-1.106l-1.307-0.478
			l-1.53-0.949l-3.07-1.584l0.117-0.635v-1.427h-1.647h-1.423h-0.819l-2.008,0.157h-0.711v-1.585l0.359-2.377l-0.243-1.905h-0.351
			h-0.828h-4.25l-0.117-1.427l0.117-1.427l-0.117-1.428v-1.428l-0.234-1.427l0.117-1.421v-1.428l-0.117-1.428l-0.117-1.427
			l0.117-1.428v-1.585v-1.271l1.414-0.157l1.422-0.321l1.414,0.321h1.18h0.468l0.243-2.698v-2.535l-0.117-0.321v-0.314h0.469h1.53
			h1.423h1.18l1.062-0.157l1.647,0.157h1.423h1.413l1.413-0.157h1.414h1.54h1.296h1.648h2.719h1.062l0.828-0.164l0.234,0.478
			l0.352,0.315l0.477,0.32v-0.792l-0.125-0.95l2.719-0.478l3.07-0.157l-0.117,0.95l1.414,0.157h1.414l1.539-0.157H315.569z">
		</path>
		<path 
			id="austin"
			name="Austin"
			d="M235.784,214.874v1.427l0.117,0.949v0.792l-0.117,0.635l0.117,0.635v0.792h0.36l-0.36,2.062v1.264v2.854l0.36,1.427l0.117,1.427
			v1.741v1.59l0.945-0.163l0.117,1.59l-0.234,1.106l-0.126,1.427v1.427h-0.937l0.117,1.427v0.949v0.635v1.27l0.117,1.427
			l-0.117,1.106l-0.117,0.949l0.351,3.809l-2.836,0.157l-2.827-0.157l-1.414,0.157l-1.422,0.157l-1.531-0.157l-1.414,0.157h-1.54
			h-1.414h-1.296h-1.54l-5.781,0.157h-3.07h-1.179h-1.531l-1.414,0.157h-1.54h-1.296h-1.531h-1.54h-1.414l-1.414,0.164l-1.54,0.157
			l0.117-3.011l-0.117-3.011l-0.117-1.904v-0.478v-0.792l-0.117-2.376v-3.168l0.009-0.635l-0.009-2.219v-1.905l-0.117-0.949
			l-0.117-2.854v-3.168v-3.168l-0.189-2.092l-0.027-0.429l-0.099-2.184l-0.027-0.701l0.027-0.43v-0.52l-0.063-1.349l0.018-0.43
			l-0.018-1.445l-0.045-0.702v-0.677l-0.054-1.409l-0.045-1.56l-0.072-0.659l-0.018-0.811l-0.036-1.566v-1.131l-0.036-1.379
			l-0.063-1.415l-0.081-1.784v-2.855v-3.012v-2.698l-0.117-0.314l0.117-2.698l-0.126-0.526l-0.108-2.323l-0.117-2.855h-0.945
			l-0.567-0.024l-0.973-0.139l-0.468,0.164l-0.945,0.157h-0.702h-0.594h-0.829h-1.062h-0.585h-1.297h-1.773h-0.468h-1.062h-0.711
			l-0.711,0.157h-1.179l-0.585,0.157l-1.306-0.157l-0.468,0.157h-1.062h-0.468l-0.945-0.157l-0.477,0.157h-0.937l-0.477-0.157
			l-0.945,0.157l-0.468,0.164l-1.062-0.321l-0.829,0.321l-0.585-0.164h-1.189h-0.468h-1.297l-0.828,0.164l-1.062-0.321l-0.945,0.157
			l-0.703,0.164l-1.306,0.157h-0.585l-1.891-0.157l0.117-3.019l-0.117-2.85l-0.117-2.855l-0.117-2.855v-2.856l0.117-3.17
			l-0.234-1.749l-0.117-1.585l0.117-0.315l-0.117-1.585l0.117-0.321l2.125,1.113l1.414,0.472l0.711,0.478l2.359,0.95l0.829,0.321
			l1.179,0.635l2.359,1.107l2.242,1.113l7.077,3.963l4.484,1.107h2.836l8.734-0.157l6.132,0.157l5.556-0.157h1.765l3.971,0.436
			l1.81,0.2l1.891,0.478l2.125,0.635l3.655,0.629l3.899-0.157l1.062,0.157l2.953,0.635l0.819,0.478l4.844,0.792l-0.243,2.535
			l-0.117,3.491v2.063l0.117,9.987v4.44l0.36,1.27l-0.117,1.427l0.117,2.855l0.099,1.416l0.252,0.961l0.351,3.49l-0.117,2.376v0.321
			V214.874z">
		</path>
		<path 
			id="west-garfield-park" 
			name="West Garfield Park"
			d="M259.393,237.536v1.427l0.116,1.427v1.427v1.427v1.27v0.949l-2.953-0.157h-2.71l0.117-0.949h-3.07h-2.836l-2.945,0.157
			l-0.117-1.584v-1.584l-2.836,1.106l-1.531,0.635l-1.179,0.478l-0.415,0.224l-1.359,0.405l-1.414,0.478l0.117-1.106l-0.117-1.427
			v-1.27v-0.635v-0.949l-0.117-1.427h0.937v-1.427l0.126-1.427l0.234-1.106l-0.117-1.59l-0.945,0.163v-1.59v-1.741l-0.117-1.427
			l-0.36-1.427v-2.854v-1.264l0.36-2.062h-0.36v-0.792l-0.117-0.635l0.117-0.635v-0.792l-0.117-0.949v-1.427l2.953-0.157
			l2.953,0.157h5.781h1.773l3.891-0.321l1.296,0.321h0.36h0.937l1.306-0.95l1.647,0.472v0.792v1.113l0.117,2.691v1.748v1.741
			l0.116,1.584v1.905v1.427l0.117,0.635v0.949v1.741l0.244,1.113v1.427v0.635l-0.117,0.629l0.072,0.478l0.162,0.949l0.116,0.792
			L259.393,237.536z">
		</path>
		<path 
			id="east-garfield-park" 
			name="East Garfield Park"
			d="M292.671,222.48v1.427l-0.234,1.584l1.18-0.157v1.427v1.427v1.427v1.584v1.27l-0.117,0.949l0.234,0.478v0.472l-0.081,0.635
			l-0.036,0.314l0.117,0.635v1.113v1.427v1.427l0.116,1.427l0.117,1.584v1.264l-2.709,0.32l-1.657-0.157l-1.297,0.157h-2.837
			l-3.061-0.157l-2.836,0.157h-2.828l0.117-1.427h-3.07h-2.836l-2.944,0.157h-2.837h-2.953h-1.647h-0.595h-0.468v-1.427v-1.427
			l-0.116-1.427v-1.427l0.116-0.792l-0.116-0.792l-0.162-0.949l-0.072-0.478l0.117-0.629v-0.635v-1.427l-0.244-1.113v-1.741v-0.949
			l-0.117-0.635v-1.427v-1.905l-0.116-1.584v-1.741v-1.748l-0.117-2.691v-1.113v-0.792h1.413l1.424,0.157l1.296-0.157h1.062
			l1.891-0.157h0.243h1.287h2.954l2.71-0.157h1.531h1.539h1.531l1.296,0.157h2.368h0.703l2.719-0.157h2.943l2.369,0.635l3.655-0.164
			h4.483l-3.188,0.478l-0.945,0.635l-0.585,1.107l0.117,0.792v2.54h-0.945v1.27L292.671,222.48z">
		</path>
		<path 
			id="near-west-side" 
			name="Near West Side<"
			d="M341.411,259.251l-1.531,0.157l-1.414-0.157l-3.664,0.157l-1.297,0.157h-1.414l-0.828,0.157h-2.008l-2.943-0.157h-2.721
			l-1.062,0.157h-2.008h-0.818l-2.125,0.164l-2.953,0.157l-1.18-0.157l-1.773,0.157l-2.711,0.157l-3.188-0.157h-1.891l-3.305,0.478
			h-2.953l0.126-0.32l-0.478-3.01l-0.352-3.802l-2.358-4.437h0.468l-0.468-0.949l-0.36-2.382l-0.234-1.427v-1.264l-0.117-1.584
			l-0.116-1.427v-1.427v-1.427v-1.113l-0.117-0.635l0.036-0.314l0.081-0.635v-0.472l-0.234-0.478l0.117-0.949v-1.27v-1.584v-1.427
			v-1.427v-1.427l-1.18,0.157l0.234-1.584v-1.427l-0.117-1.106v-1.27h0.945v-2.54l-0.117-0.792l0.585-1.107l0.945-0.635l3.188-0.478
			l1.414-0.472l-0.117-0.792l1.297,0.157l1.422-0.157h1.414l1.414-0.164l2.953,0.164l3.188,0.157l1.531-0.321l1.412,0.321
			l2.721-0.157l1.297-0.321h1.295h0.945l1.18,0.157l1.062,0.164l2.008-0.164l1.062-0.314h1.297h1.18l0.711,0.157l1.18-0.157
			l2.242,0.314l1.531-0.314l0.594-0.157l1.297,0.157h1.414l1.297-0.157l1.422,0.157h1.414h1.414l1.305-0.157l0.818,0.472h0.596
			h0.234h1.891h0.352l1.412-0.472l1.658-0.157h1.412l0.596,0.157h1.295l0.703-0.157l2.008,4.911l-0.117,2.54l-0.234,2.056
			l-0.234,2.062v2.062l0.117,1.905l0.469,2.056l0.477,1.905l0.945,2.062l0.352,0.949l0.352,0.949l0.945,4.124l0.477,3.488
			l0.469,4.117v9.509v1.741l-0.945-0.157h-0.828l-0.586,0.157h-0.477h-1.062l-1.414-0.157l-1.18,0.157h-1.062h-1.18l-1.18,0.163
			h-0.945h-0.467h-0.244h-0.234h-0.234h-0.232h-2.125h-1.18l-1.297,0.157h-1.18h-0.594H341.411z">
		</path>
		<path 
			id="north-lawndale" 
			name="North Lawndale"
			d="M277.329,269.074h-1.531l-1.422,0.32l-1.414-0.164h-1.414h-1.296l0.116,2.062l-1.296,0.477h-1.423h-0.469h-1.539h-1.18
			l-1.414,0.157l-1.413-0.157l-1.413,0.157h-1.54h-1.296v3.645l-1.774,0.792l-1.297,0.478l0,0l-2.241,0.472l-1.766,0.478
			l-1.656,0.477l-2.008,0.472l-1.18,0.478l-0.351,0.314l-0.946,0.157l-1.062,0.242l-1.657,0.556l-3.89,1.583l-0.117-1.112
			l-0.234-4.75l-0.126-2.218v-1.747l-0.117-0.949l-0.018-0.333l-0.099-1.409l-0.117-1.426v-1.269l-0.117-5.863l-0.117-2.061
			l0.117-0.792v-2.533v-1.904l0.234-0.314l-0.18-1.052l-0.171-1.487V249.9v-0.472l-0.351-3.809l0.117-0.949l1.414-0.478l1.359-0.405
			l0.415-0.224l1.179-0.478l1.531-0.635l2.836-1.106v1.584l0.117,1.584l2.945-0.157h2.836h3.07l-0.117,0.949h2.71l2.953,0.157
			v-0.949v-1.27h0.468h0.595h1.647h2.953h2.837l2.944-0.157h2.836h3.07l-0.117,1.427h2.828l2.836-0.157l3.061,0.157h2.837
			l1.297-0.157l1.657,0.157l2.709-0.32l0.234,1.427l0.36,2.382l0.468,0.949h-0.468l2.358,4.437l0.352,3.802l0.478,3.01l-0.126,0.32
			v2.847l-0.234,0.635l-3.422,0.955l-3.771,1.263l-1.541,0.32v-0.478l-4.249,0.157h-4.358v1.27l0.117,0.949l-0.117,0.478
			l-1.422,0.314L277.329,269.074z">
		</path>
		<path 
			id="south-lawndale"
			name="South Lawndale"
			d="M284.406,266.221L284.406,266.221l4.249-0.157v0.478l1.541-0.32l3.771-1.263l3.422-0.955v3.01l0.045,0.32l0.072,0.635v0.792
			l0.117,1.426l0.126,1.263v2.696v3.01v1.426l0.117,1.426v2.695l0.116,0.314l-0.116,1.269l0.019,0.447l0.215,5.571l0.117,2.532v0.32
			l-0.117,1.105l0.117,1.583l0.117,1.269v1.74l-1.062,0.32l-0.468,0.314l-7.438,3.172l-1.413,0.472l-8.032,3.172l-1.999,0.791
			l-11.219,4.749l-1.882,0.635l-6.141,2.694l-3.188,1.42l-4.366,2.061l-13.102,5.702l-0.117-1.583l0.117-1.426l-0.117-1.269v-1.269
			l0.117-0.628l-0.117-0.163l-0.702-10.924l0.351-4.435l0.117-0.954l0.234-2.055v-3.486v-0.792l-0.234-10.931l-0.117-2.375
			l3.89-1.583l1.657-0.556l1.062-0.242l0.946-0.157l0.351-0.314l1.18-0.477l2.008-0.472l1.656-0.477l1.766-0.478l2.241-0.472
			l1.297-0.478l1.774-0.792v-3.645h1.296h1.54l1.413-0.157l1.413,0.157l1.414-0.157h1.18h1.539h0.469h1.423l1.296-0.477
			l-0.116-2.062h1.296h1.414l1.414,0.164l1.422-0.32h1.531l1.297,0.157l1.422-0.314l0.117-0.478l-0.117-0.949v-1.27H284.406z">
		</path>
		<path 
			id="lower-west-side" 
			name="Lower West Side"
			d="M338.465,259.251l1.414,0.157l1.531-0.157h0.828h0.594h1.18l1.297-0.157h1.18h2.125h0.232h0.234h0.234h0.244h0.467h0.945
			l1.18-0.163h1.18h1.062l1.18-0.157l1.414,0.157h1.062h0.477l0.586-0.157h0.828l0.945,0.157l-0.234,1.589l-0.539,1.868
			l-0.055,0.188l-0.828,2.061l-1.18,1.269l-2.125,1.427l-0.82,1.106l-1.178,1.904l-2.369,3.959l-1.764,1.112l-0.713,0.157
			l-0.234,0.314l-1.891,0.163l-4.555,1.088l-8.662,2.079l-1.297-0.157l-2.711,2.689l-2.836,1.904l-0.352,1.741l-0.828,1.269
			l-0.352,2.375l0.117,1.904l0.352,0.949l-1.891,0.634l-1.648,1.426l-0.477,0.471l-1.881,0.635l-1.297-0.157h-0.479l-3.303,0.157
			l-2.359,0.157l-2.953-0.314l-1.18-0.157l-1.414,0.471l-5.195,2.224l-0.703,0.157l-2.719,1.263v-1.74l-0.117-1.269l-0.117-1.583
			l0.117-1.105v-0.32l-0.117-2.532l-0.215-5.571l-0.019-0.447l0.116-1.269l-0.116-0.314v-2.695l-0.117-1.426v-1.426v-3.01v-2.696
			l-0.126-1.263l-0.117-1.426v-0.792l-0.072-0.634l-0.045-0.32v-3.01l0.234-0.635v-2.847h2.953l3.305-0.478h1.891l3.188,0.157
			l2.711-0.157l1.773-0.157l1.18,0.157l2.953-0.157l2.125-0.164h0.818h2.008l1.062-0.157h2.721l2.943,0.157h2.008l0.828-0.157h1.414
			l1.297-0.157L338.465,259.251z">
		</path>
		<path 
			id="loop" 
			name="Loop"		
			d="M372.69,212.968l4.602,0.321l7.553,0.472l0.82,6.343l-3.539,3.326v1.427l0.711-0.157l0.117,1.27l-0.828,0.157v1.112l0.244,7.764
			l-0.01,0.949l0.055,1.832l0.072,2.606l-0.127,4.28l1.062,1.112l-1.414,0.157l-1.297,0.157l-0.828,0.792h-0.467h-1.658h-0.818
			h-1.189h-0.818l-0.479,0.157h-1.412l-1.062,0.006l-0.945-0.006l-0.703,0.32h-0.945h-0.711l-0.711-0.32h-1.18l-0.352-0.157
			l-0.594,0.157h-0.234h-1.18l-1.766,0.163h-0.594l-1.18,0.472l-0.469-4.117l-0.477-3.488l-0.945-4.124l-0.352-0.949l-0.352-0.949
			l-0.945-2.062l-0.477-1.905l-0.469-2.056l-0.117-1.905v-2.062l0.234-2.062l0.234-2.056l0.117-2.54l2.242-2.062h2.125l1.773-0.157
			l1.766,0.157h1.891l1.656-0.472l1.531-0.478L372.69,212.968z">
		</path>
		<path 
			id="near-south-side" 
			name="Near South Side"
			d="M375.284,281.59l-1.648,0.157l-1.656-0.121l-0.352-0.036h-1.18h-0.711h-1.531l-1.305,0.157v-1.583l-0.117-0.635l0.117-0.314
			l-0.117-0.792l0.117-2.375l0.125-3.173l0.234-2.218h-0.711l-0.234-1.898v-0.163l-0.234-1.898l-0.117-0.635v-1.741l-0.125-1.426
			l0.125-0.478h-0.594h-1.414l-1.297,0.157h-1.188h-0.352l-1.008-0.188l0.539-1.868l0.234-1.589v-1.741v-9.509l1.18-0.472h0.594
			l1.766-0.163h1.18h0.234l0.594-0.157l0.352,0.157h1.18l0.711,0.32h0.711h0.945l0.703-0.32l0.945,0.006l1.062-0.006h1.412
			l0.479-0.157h0.818h1.189h0.818h1.658h0.467l0.828-0.792l1.297-0.157l1.414-0.157h0.594l2.008,0.157l-0.117,1.898l-0.115,0.32
			l3.303-0.157l3.305-0.163l2-0.314v1.3v1.076l-0.117,1.27l-0.586-0.478l-0.828,2.219l1.18,2.854l0.352-0.157l0.125,2.696
			l-1.062,0.629l0.586,10.62l-1.666,0.091l-1.162,0.066l-1.188-0.634l0.359-4.594l0.352-0.32l-0.586-0.949l-0.477-0.792v-1.106
			v-0.478l-0.469-0.792v-0.949l0.117-1.59v-0.792l0.586-1.583l-0.586-4.594h-0.359l0.125-0.792h-2.367l0.125,0.792h-0.477
			l0.352,6.341l0.125,0.792l0.117,1.264l0.117,2.218l-0.828,2.381v2.218l0.711,1.106l0.586-0.157l1.008,2.974l0.172,0.514v2.218
			l-0.703,1.898l2.477,6.34l-0.117,1.583h-2.242h-0.234l-0.945,0.157h-1.305h-0.586h-1.18h-1.539l-0.352-0.635l-0.828-0.314
			l-0.584,0.157l-1.297,0.157l-0.945-0.157h-0.945H375.284z">
		</path>
		<path 
			id="armour-square" 
			name="Armour Square"
			d="M358.76,293.313L358.76,293.313v-1.112l0.234-0.792l-0.117-1.106l-0.234-1.426v-1.269l-0.117-1.106l0.117-0.32v-1.426h-0.594
			h-0.586h-0.828l-0.352,0.163l0.117-1.589v-1.426l-0.117-0.471l-0.232-0.792l-1.658-0.157l-1.891,0.157v-0.32l-0.117-0.635
			l0.117-0.628l-0.117-0.792l-0.117-0.477v-0.792l-0.584-0.478l-0.479-0.157l-0.467-0.314l-0.945-0.635l1.764-1.112l2.369-3.959
			l1.178-1.904l0.82-1.106l2.125-1.427l1.18-1.269l0.828-2.061l0.055-0.188l1.008,0.188h0.352h1.188l1.297-0.157h1.414h0.594
			l-0.125,0.478l0.125,1.426v1.741l0.117,0.635l0.234,1.898v0.163l0.234,1.898h0.711l-0.234,2.218l-0.125,3.173l-0.117,2.375
			l0.117,0.792l-0.117,0.314l0.117,0.635v1.583h-0.82v2.061v3.487l0.234,3.958l0.117,2.061l0.117,5.705v5.698l0.594,0.163
			l0.117,2.055v2.852v3.485l-0.117,3.166h-0.359h-0.352l-0.469,0.157l-0.242,0.163h-0.586h-0.359l-1.766-0.163h-0.828h-0.586
			l-2.953-3.009l-0.09-1.426l-0.027-0.472l0.117-0.948l-0.117-5.86l-0.234-5.547l0.938-0.157l-0.117-2.852L358.76,293.313z">
		</path>
		<path 
			id="douglas" 
			name="Douglas"
			d="M381.891,316.122l-0.234,0.314h-0.359h-1.053l-0.596-0.314h-0.828l-0.945,0.157h-0.467l-1.414,0.157h-1.773l-2.008-0.157
			l-0.234,0.024l-0.945,0.133h-0.945h-1.297h-1.297h-0.352l0.117-3.166v-3.485v-2.852l-0.117-2.055l-0.594-0.163v-5.698
			l-0.117-5.705l-0.117-2.061l-0.234-3.958v-3.487v-2.061h0.82l1.305-0.157h1.531h0.711h1.18l0.352,0.036l1.656,0.121l1.648-0.157
			h2.125h0.945l0.945,0.157l1.297-0.157l0.584-0.157l0.828,0.314l0.352,0.634h1.539h1.18h0.586h1.305l0.945-0.157h0.234h2.242
			l3.773,10.612l2.008,5.861l-0.352,2.06l1.766,0.949l0.477,2.537l-3.664,0.157h-0.938h-0.594h-0.352h-0.945l-1.297,0.157
			l-1.539-0.157l-0.117,2.218l-0.441,1.951l-0.197,0.864l-0.189,0.827l-0.352,1.583l-0.234,1.426l-0.234,1.269l-0.359,1.426h-2.242
			l-1.062,0.157H381.891z">
		</path>
		<path 
			id="oakland"
			name="Oakland"
			d="M390.274,304.559l1.297-0.157h0.945h0.352h0.594h0.938l3.664-0.157l0.469,1.264l1.062,1.268l1.297,4.592l2.357,1.903v1.903
			l1.424,1.583l6.014,10.294h-3.537l-0.83,0.156h-0.828h-1.18h-1.412h-0.586h-1.539h-1.531l-2.836-0.156l-0.586,0.314h-2.484
			l0.125-1.584v-0.319l-0.242-0.948l0.117-1.27v-1.582v-1.74l0.242-1.582l0.037-0.284l0.08-0.508l-0.234-1.269l-3.664-0.314h-3.188
			l0.359-1.426l0.234-1.269l0.234-1.426l0.352-1.583l0.189-0.827l0.197-0.864l0.441-1.951l0.117-2.218L390.274,304.559z">
		</path>
		<path 
			id="fuller-park" 
			name="Fuller Park"
			d="M358.643,316.594h2.953h0.586h0.828l1.766,0.163h0.359h0.586l0.242-0.163l0.469-0.157h0.352l-0.117,0.792l0.117,0.477l0.242,1.426
			l-0.125,2.531l0.359,2.061l0.234,4.276l-0.117,2.851v0.791v1.426v1.583l-0.117,2.217v1.425v1.105l0.117,11.403l0.117,6.015
			l0.234,5.537h-1.414l-0.828,0.164h-0.469l-0.117,0.156l-0.711-0.156h-0.469l-1.305,0.156h-1.414l-1.297,0.314v-0.791
			l-0.234-10.925l-0.242-11.71l-0.189-1.111l-0.162-0.949v-3.643l0.289-2.053l0.188-1.293v-1.088l0.154-0.023l0.197-1.401v-0.32
			l0.117-1.263l-0.234-1.426l-0.477,0.314l-0.117-1.263v-0.163l-0.117-4.591L358.643,316.594z">
		</path>
		<path 
			id="grand-boulevard" 
			name="Grand Boulevard"
			d="M393.696,335.918l-0.117,2.845l0.117,1.589v1.425v2.845l-0.117,2.852l0.117,1.425v1.582h-1.656l-2.594,0.163h-1.414h-1.422h-2.008
			h-0.936h-0.83h-0.477h-0.352h-0.352l-1.061,0.157l-0.479-0.157h-0.584h-1.062l-1.893,0.157h-2.008h-1.881l-0.711,0.048
			l-1.062,0.109l-2.594-0.157h-0.945l-0.117-11.403v-1.105v-1.425l0.117-2.217v-1.583v-1.426v-0.791l0.117-2.851l-0.234-4.276
			l-0.359-2.061l0.125-2.531l-0.242-1.426l-0.117-0.477l0.117-0.792h0.359h0.352h1.297h1.297h0.945l0.945-0.133l0.234-0.024
			l2.008,0.157h1.773l1.414-0.157h0.467l0.945-0.157h0.828l0.596,0.314h1.053h0.359l0.234-0.314h1.414l1.062-0.157h2.242h3.188
			l3.664,0.314l0.234,1.269l-0.08,0.508l-0.037,0.284l-0.242,1.582v1.74v1.582l-0.117,1.27l0.242,0.948v0.319l-0.125,1.584v1.425
			l0.125,1.426l0.117,3.008L393.696,335.918z">
		</path>
		<path 
			id="kenwood" 
			name="Kenwood"
			d="M405.256,350.166l-1.764,0.156l-1.18-0.156h-0.594l-1.891-0.158l-0.352,0.158l-1.531,0.156h-1.18h-0.828l-2.242,0.157v-1.582
			l-0.117-1.425l0.117-2.852v-2.845v-1.425l-0.117-1.589l0.117-2.845l-0.117-2.694l-0.117-3.008l-0.125-1.426v-1.425h2.484
			l0.586-0.314l2.836,0.156h1.531h1.539h0.586h1.412h1.18h0.828l0.83-0.156h3.537l2.242,5.225l4.367,3.322v2.06l6.727,9.344
			l1.07,0.507l0.586,0.284l-0.549,1.595l-0.162,0.459h-0.469l-0.594-0.157l-0.703,0.319l-1.188-0.162h-0.82l-0.594,0.162
			l-1.414-0.162l-1.414,0.162l-0.594,0.158l-0.711-0.158h-0.938l-1.305,0.158h-1.531l-1.529-0.158l-2.125,0.158h-1.891H405.256z">
		</path>
		<path 
			id="washington-park" 
			name="Washington Park"
			d="M382.008,350.643h0.352h0.477h0.83h0.936h2.008h1.422h1.414l2.594-0.163h1.656l0.117,0.791l0.234,0.478v1.582l-0.117,2.851v2.851
			v2.85l0.117,2.851l0.117,2.844v2.851v3.006v0.791l0.117,1.111l-0.117,0.948l-2.711,0.157h-1.422H388.5h-1.297l-1.297,0.162h-1.539
			h-1.648l0.117,2.851l0.117,3.007l-0.117,2.844h-1.773l-0.314,0.09l-0.27,0.072H380h-0.818h-2.008l0.117,0.314l-1.891-0.157
			l-2.01,0.157l-1.412,0.283l-0.352,0.037l-0.117-0.797l-0.127-4.746h-1.295l-1.531,0.157l-0.477-0.157v-1.582v-1.901l-0.117-2.216
			l0.117-0.635l-0.234-4.432l0.117-1.582l-0.234-5.066v-0.791l-0.234-5.537l-0.117-6.015h0.945l2.594,0.157l1.062-0.109l0.711-0.048
			h1.881h2.008l1.893-0.157h1.062h0.584l0.479,0.157l1.061-0.157H382.008z">
		</path>
		<path 
			id="hyde-park" 
			name="Hyde Park"
			d="M405.256,350.166h1.893h1.891l2.125-0.158l1.529,0.158h1.531l1.305-0.157h0.938l0.711,0.157l0.594-0.157l1.414-0.163l1.414,0.163
			l0.594-0.163h0.82l1.188,0.163l0.703-0.32l0.594,0.157h0.469v4.596l0.828,1.896l2.826,2.373h2.125l0.479,1.902l-1.18,0.947
			l-1.297,0.164l-1.891,1.418l3.07,8.708l-0.711,0.477l-0.828,0.157l0.828,0.157l0.234,3.327l-0.83-0.158l-2.357,0.158h-1.531
			l-0.469,0.156l-1.188-0.156l-1.531,0.156h-1.18l-0.469,0.157l-1.891-0.472l-2.502,0.104l-1.279,0.055h-1.297h-1.414l-0.963,0.072
			l-1.045,0.084l-1.764-0.156h-2.125l-1.773,0.156h-3.9l-1.881,0.157h-1.891h-2.008l0.117-0.948l-0.117-1.111v-0.791v-3.006v-2.851
			l-0.117-2.844l-0.117-2.851v-2.85v-2.851l0.117-2.851v-1.582l-0.234-0.478l-0.117-0.791l2.242-0.157h0.828h1.18l1.531-0.156
			l0.352-0.157l1.891,0.157h0.594l1.18,0.156L405.256,350.166z">
		</path>
		<path 
			id="woodlawn" 
			name="Woodlawn"
			d="M412.928,375.969h1.297l1.279-0.055l2.502-0.104l1.891,0.472l0.469-0.157h1.18l1.531-0.156l1.188,0.156l0.469-0.156h1.531
			l2.357-0.158l0.83,0.158l8.85,7.281l-2.592,1.262l-1.531,1.268l-1.621,1.328l0.676-0.061h0.945h0.701l2.477,3.32l4.729,4.432
			l-1.541,0.633h-1.531l-2.123,0.32l-1.893-0.163l-1.529,0.163h-0.828h-1.766h-1.656l-1.297-0.163l-1.539,0.163l-1.414,0.157
			l-1.531-0.157l-1.539,0.157l-0.938-0.32l-1.773,0.32l-0.711-0.157h-0.352l-3.539,0.471h-2.953h-0.467l-0.479-0.156h-0.945
			l-1.881,0.156h-1.891h-1.414l-1.307,0.163l-1.529-0.163l-1.531,0.163h-1.305h-1.531h-1.297h-1.531v3.006l0.117,2.844l0.117,1.744
			l0.117,3.954l-3.898-3.483l-1.766-1.738l-0.594-0.634l-1.648-1.738l-0.945-0.948l-2.836-2.849l-0.117-3.006l-0.117-2.536
			l-0.117-2.849v-2.85l0.117-2.844l-0.117-3.007l-0.117-2.851h1.648h1.539l1.297-0.162h1.297h1.531h1.422l2.711-0.157h2.008h1.891
			l1.881-0.157h3.9l1.773-0.156h2.125l1.764,0.156l1.045-0.084l0.963-0.072H412.928z">
		</path>
		<path 
			id="south-shore" 
			name="South Shore"
			d="M429.217,395.752h1.656h1.766h0.828l1.529-0.163l1.893,0.163l2.123-0.32h1.531l1.541-0.633l3.537,7.279l3.891,0.32l-1.18,4.43
			l-0.352,0.791l1.656,1.582l2,3.005l1.305,1.104l1.531,1.111l1.891,2.371l2.125,1.425l1.297,0.634l3.539,0.634l1.18-0.32
			l4.133-2.052l0.828,0.791l2.475,3.162l-1.773,1.901l-2.477,1.895l-1.178,1.11l-0.479,0.157l-1.297,0.634l-1.295-1.11l-1.062,0.633
			l-0.586,0.478l-0.945,0.634l-0.945,0.627l-2.125,1.901h-0.711l-1.18-0.157l-1.297,0.157l-0.469-0.157h-1.18l-0.359,0.157h-1.062
			l-0.586,0.156h-1.062l-0.945-0.156l-1.773,0.156l-1.414-0.156h-1.297l-1.539,0.313h-1.414h-1.529l-1.541,0.32l-1.414-0.32h-1.412
			l-1.541,0.163l-1.297-0.163l-1.295,0.163l-1.648,0.157h-1.189h-1.646h-1.297h-0.594h-1.062h-0.703h-0.594l-0.945,0.156
			l-0.586-0.156l-1.297,0.156l-0.945,0.314l-0.387-0.073l-0.145,0.036l-0.297,0.199v-0.319v-0.791l-1.531-1.424l-1.773-1.581
			l-1.656-1.268l-1.414-1.581l-2.359-2.058l-1.062-1.418l-0.711-0.634l-0.352-0.477h0.352l0.127-2.85v-3.162h1.414l-0.234-1.581
			l0.584-1.11l-0.232-1.262l-0.117-0.477v-1.268h0.828l0.35-0.314l0.117-0.953l0.117-1.419v-0.634l-0.117-2.378l-0.35-1.738
			l0.584-4.431l0.479,0.156h0.467h2.953l3.539-0.471h0.352l0.711,0.157l1.773-0.32l0.938,0.32l1.539-0.157l1.531,0.157l1.414-0.157
			l1.539-0.163L429.217,395.752z">
		</path>
		<path 
			id="chatham" 
			name="Chatham"
			d="M395.11,430.873h1.773l1.297,0.157l1.414-0.157l1.539-0.157h1.531h1.297l0.945,0.157l-0.117,1.268l0.234,0.156l-0.586,4.272
			l-0.127,1.424l0.127,1.581l-0.477,1.424l0.117,1.424v4.109l3.07,7.276l-2.594,0.163h-0.594h-0.83l-1.881,0.156l-0.711,2.685v0.478
			l-0.352,2.37l-0.828,0.157l-0.594,1.424l-0.117,1.424l-0.234,1.58l-0.234,1.424l-0.594,2.848h0.594l-0.594,2.847h0.477
			l-0.828,3.951l-0.828-0.471v0.634l-0.117,1.423l-2.711-1.423l-1.539-0.953l-1.297-0.79l-0.469-0.947l-0.594-0.79l-0.586-0.157
			l-1.422-0.319l-2.711-2.214v-0.313l-0.117-0.634l-4.627-1.984l-1.279-0.543l-1.881-0.163l-0.711,0.163l-1.18,0.156h-0.234
			l-1.062-0.156l-0.479,0.156h-0.945l-0.467-0.06l-0.711-0.097l-0.82-1.11l-0.594-0.633l-1.531-2.058l-0.945-1.261l-1.773-2.534
			l-0.234-0.47l-1.297-1.268l-0.945-1.267v-0.471l0.045-1.002l-1.17-2.727l-0.406-2.124l-0.359-5.539l-2.242-1.267l-0.117,1.11
			l-1.414-0.313l-1.18,0.313l-0.828-0.157l-0.117-1.581l0.117-1.109v-1.268l-0.352-1.581v-1.104l0.234-1.743h-0.35v-2.686h0.818
			h0.945h0.234l1.18-0.157h1.422l1.531-0.163l1.414,0.163h1.422l1.297-0.163h1.414l1.414-0.156h1.539h0.945l0.586,0.156l0.828-0.156
			h0.594l1.766,0.156l2.008-0.156h1.891l1.881-0.157l2.008,0.157l1.773-0.157l1.531-0.157l1.422-0.162l1.414,0.162l1.414-0.162
			h1.414l1.539,0.162l1.297-0.162L395.11,430.873z">
		</path>
		<path 
			id="avalon-park" 
			name="Avalon Park"
			d="M409.389,422.171l2.359,2.058l1.414,1.581l1.656,1.268l1.773,1.581l1.531,1.424v0.791v0.319l0.297-0.199l0.145-0.036l0.387,0.073
			l2.477,2.214l1.297,1.425l0.477,0.162l1.531,1.581l0.352,0.634l2.125,1.895l1.297,1.425l1.656,1.424l2.008,1.737l1.531,1.424
			l1.295,1.268l0.945,0.947l0.234,0.477l2.008,1.424l0.234,0.313l0.486,0.531l0.82,0.893l0.531,0.501l1.828,1.714l-0.117,0.319
			l-1.424-0.163l-0.701,0.163l-0.596,0.157l-0.584,0.313l-0.945-0.313l-1.541-0.32l-1.646,0.163l-1.414,0.157l-1.307-0.157
			l-1.062,0.157h-1.764h-1.414l-1.656,0.156l-1.18,0.32l-2.953-0.163l-2.477-0.157h-0.469l-1.656,0.157h-1.297h-0.352l-0.828-0.157
			l-0.594,0.157l-0.945-0.157h-0.586l-0.945,0.157h-0.467h-0.596h-0.945h-0.701h-1.773l-3.07-7.276v-4.109l-0.117-1.424l0.477-1.424
			l-0.127-1.581l0.127-1.424l0.586-4.272l-0.234-0.156l0.117-1.268l0.232,0.157l1.775-0.157l-0.234-2.849l-0.244-2.842l-0.467-0.163
			l0.232-2.849h0.947l1.295,0.477l0.479-0.157L409.389,422.171z">
		</path>
		<path 
			id="south-chicago" 
			name="South Chicago"
			d="M457.778,429.926l2.125-1.901l0.945-0.627l0.945-0.634l0.586-0.477l1.062-0.634l1.295,1.11l1.297-0.634l0.479-0.157l1.178-1.11
			l1.297,4.749l1.613,0.489l1.008,0.308l4.105,1.255l7.555,4.116l0.711,10.595l-8.031,0.791h-3.062l0.117,0.633l3.07-0.156
			l8.258,0.156l0.477,4.586l0.82,6.485l-8.969,5.219l-2.008-5.219l0.828,3.795l-0.117,2.377l-2.125,0.79l-2.953,2.214l-0.352,1.104
			l-0.467,0.634l-0.945,3.951l-0.117,0.633l0.234,1.58h-2.242l-2.242-1.423l-0.361-0.471l-0.234-0.319l-0.945-0.947l-2.592-2.527
			l-0.596-0.634l-1.646-1.267l-0.945-1.104l-3.188-2.848l-0.703-0.79l-4.016-4.271l-1.414-0.947l-1.773-1.743l-1.062-0.947
			l-2.592-2.69l-1.828-1.714l-0.531-0.501l-0.82-0.893l-0.486-0.531l-0.234-0.313l-2.008-1.424l-0.234-0.477l-0.945-0.947
			l-1.295-1.268l-1.531-1.424l-2.008-1.737l-1.656-1.424l-1.297-1.425l-2.125-1.895l-0.352-0.634l-1.531-1.581l-0.477-0.162
			l-1.297-1.425l-2.477-2.214l0.945-0.314l1.297-0.156l0.586,0.156l0.945-0.156h0.594h0.703h1.062h0.594h1.297h1.646h1.189
			l1.648-0.157l1.295-0.163l1.297,0.163l1.541-0.163h1.412l1.414,0.32l1.541-0.32h1.529h1.414l1.539-0.313h1.297l1.414,0.156
			l1.773-0.156l0.945,0.156h1.062l0.586-0.156h1.062l0.359-0.157h1.18l0.469,0.157l1.297-0.157l1.18,0.157H457.778z">
		</path>
		<path 
			id="burnside"
			name="Burnside"
			d="M401.25,454.127l1.881-0.156h0.83h0.594l2.594-0.163l0.35,1.424l0.945,1.424l0.596,1.11l0.945,1.58l0.701,1.737l0.596,1.267
			l0.467,1.581l0.828,1.58l1.297,2.534l1.18,3.161l0.945,1.894l0.469,1.755l0.08,0.308l0.045,0.314l0.234,0.313l0.703,1.109
			l-4.953,0.157h-1.295h-2.125h-1.297h-1.541l-1.295,0.156l-1.414,0.157h-5.664l-0.828-0.157l-0.477,0.157l-0.352-0.471l0.117-1.423
			v-0.634l0.828,0.471l0.828-3.951h-0.477l0.594-2.847h-0.594l0.594-2.848l0.234-1.424l0.234-1.58l0.117-1.424l0.594-1.424
			l0.828-0.157l0.352-2.371v-0.477L401.25,454.127z">
		</path>
		<path 
			id="calumet-heights"
			name="Calumet Heights"
			d="M441.967,453.337l0.117-0.319l2.592,2.69l1.062,0.947l1.773,1.743l1.414,0.947l4.016,4.271l0.703,0.79l3.188,2.848l0.945,1.104
			l1.646,1.267l0.596,0.634l2.592,2.527l0.945,0.947l0.234,0.319l0.361,0.471l2.242,1.423l-1.18,0.163l-0.479-0.163l-0.701,0.163
			h-0.828l-0.828-0.163l-1.297,0.163l-1.531,0.157h-1.656h-1.648h-1.539l-1.766-0.157l-1.773,0.157l-0.352,0.313l-1.656-0.313h-1.18
			l-0.586,0.018l-4.016,0.139l-0.945-0.156l-0.234-0.634v-0.477l0.234-0.946l-1.773,0.156l-4.367,0.32L430.747,475l-10.029,0.313
			l-1.604,0.15l-2.521,0.013l-0.045-0.314l-0.08-0.308l-0.469-1.755l-0.945-1.894l-1.18-3.161l-1.297-2.534l-0.828-1.58
			l-0.467-1.581l-0.596-1.267l-0.701-1.737l-0.945-1.58l-0.596-1.11l-0.945-1.424l-0.35-1.424h1.773h0.701h0.945h0.596h0.467
			l0.945-0.157h0.586l0.945,0.157l0.594-0.157l0.828,0.157h0.352h1.297l1.656-0.157h0.469l2.477,0.157l2.953,0.163l1.18-0.32
			l1.656-0.156h1.414h1.764l1.062-0.157l1.307,0.157l1.414-0.157l1.646-0.163l1.541,0.32l0.945,0.313l0.584-0.313l0.596-0.157
			l0.701-0.163L441.967,453.337z">
		</path>
		<path 
			id="roseland" 
			name="Roseland"
			d="M361.237,455.074l0.117-1.267l-0.117-1.261l0.117-2.377l0.242-1.262l0.406,2.124l1.17,2.727l-0.045,1.002v0.471l0.945,1.267
			l1.297,1.268l0.234,0.47l1.773,2.534l0.945,1.261l1.531,2.058l0.594,0.633l0.82,1.11l0.711,0.097l0.467,0.06h0.945l0.479-0.156
			l1.062,0.156h0.234l1.18-0.156l0.711-0.163l1.881,0.163l1.279,0.543l4.627,1.984l0.117,0.634v0.313l2.711,2.214l1.422,0.319
			l0.586,0.157l0.594,0.79l0.469,0.947l1.297,0.79l1.539,0.953l2.711,1.423l0.352,0.471l0.477-0.156l0.828,0.156l-1.18,6.961
			l-0.359,1.736l-0.117,1.267l-0.234,1.424l-0.234,1.104l-0.117,1.109v0.634l-0.242,1.26l-0.469,1.9l-0.945,5.06l-0.469,1.736
			l-0.117,1.423l-0.359,1.424l-0.352,1.423l-0.117,1.423l-0.359,2.057l-0.352,2.369l-0.586,3.003l-0.477,3.159l-0.234,1.267
			l-0.594,4.269l-0.234,1.423l-0.234,1.423l-0.352,2.84l-0.477,2.845l-0.117,1.423l-0.469,1.742l-0.711,0.157h-0.352h-0.359h-0.936
			h-1.307l-1.414,0.156l-1.414-0.156h-1.295l-3.07,0.156l-2.604,0.157l-1.529-0.157l-0.83-0.156l-0.35-0.006l-0.234,0.006h-0.361
			l-1.053,0.156l-1.422-0.156l-1.414,0.156l-1.414-0.156l-1.422,0.156h-1.414h-1.297h-1.656l-1.414,0.157h-1.414h-1.539l-1.18,0.156
			h-0.818l-0.83-0.156l-1.295,0.156v-3.002l-0.117-3.159v-2.525l-0.127-2.689v-3.002v-2.846l-0.117-3.003l-0.117-2.846v-2.847
			l-0.117-3.003v-2.846v-2.847h1.414h1.422h1.297h1.531h1.422h1.414l2.242-0.313h0.469l-0.117-1.104l-0.234-1.423v-1.586v-1.261
			v-1.58v-1.267l0.117-1.58l0.117-1.423v-0.79l-0.117-0.477l-0.117-1.58l-0.117-2.847l-0.117-3.004l0.352-2.847l-0.045-2.214
			l-0.082-4.06l-0.008-0.368l-0.018-1.267l-0.082-3.951l-0.234-1.9v-1.418l-0.359-2.376v-2.848L361.237,455.074z">
		</path>
		<path 
			id="pullman"
			name="Pullman"
			d="M397.946,477.37h5.664l1.414-0.156l1.295-0.157h1.541h1.297h2.125h1.295l4.953-0.157l1.549,2.214l0.107,0.627v2.214l0.414,6.176
			l0.127,1.815l0.045,0.706v0.633l-0.686,8.865l-1.773-0.181l0.072,2.291l-1.477,1.737l-3.26,3.811l-2.791,2.762l-0.818,0.953
			l-4.133,10.431l-0.596,1.423l-0.936,2.369l-2.953,7.428l-0.711,1.898h-1.18l-0.828-0.162l-3.656-0.157h-0.828l-1.297,0.157h-1.414
			l-2.008,0.319l-0.352-0.157l0.469-1.742l0.117-1.423l0.477-2.845l0.352-2.84l0.234-1.423l0.234-1.423l0.594-4.269l0.234-1.267
			l0.477-3.159l0.586-3.003l0.352-2.369l0.359-2.057l0.117-1.423l0.352-1.423l0.359-1.424l0.117-1.423l0.469-1.736l0.945-5.06
			l0.469-1.9l0.242-1.26v-0.634l0.117-1.109l0.234-1.104l0.234-1.424l0.117-1.267l0.359-1.736L397.946,477.37z">
		</path>
		<path 
			id="south-deering" 
			name="South Deering"
			d="M419.114,475.464l1.604-0.15L430.747,475l5.547-0.313l4.367-0.32l1.773-0.156l-0.234,0.946v0.477l0.234,0.634l0.945,0.156
			l4.016-0.139l0.586-0.018h1.18l1.656,0.313l0.352-0.313l1.773-0.157l1.766,0.157h1.539h1.648h1.656l1.531-0.157l1.297-0.163
			l0.828,0.163h0.828l0.701-0.163l0.479,0.163l1.18-0.163h2.242l-0.352,2.534l0.584,1.104v1.743l0.352,1.894l0.828,6.96v4.264v0.477
			l-4.133,5.373l-0.467,6.959h0.711l1.646,0.157l-1.295,2.689l-0.117,1.893l0.117,1.109l-0.117,2.847v2.84l0.117,3.009v2.683v2.846
			l0.115,11.695v2.688l0.117,11.688l-1.891,9.167l2.125,13.902l-1.881-1.266l-1.062-0.946l-1.062-0.789l-1.541-0.952l-1.529-1.26
			l-0.893-0.867l-0.404-0.398l-2.008-3.477l-0.828-1.579l-0.234-0.477l-2.836-5.846l-2.242,2.688l-0.586,0.319v9.636l-0.117,4.894
			l-1.891,0.156h-0.352h-13.334l-0.945,0.163l-5.547-0.319l-6.375-0.471l-1.818-0.331l-2.701-0.259l-2.143-0.199l-1.027-1.645
			l-1.277-1.989l-0.479-0.633l-0.504-0.542l-2.918-4.833l-4.006-6.003l-3.432-5.057l-1.295-2.525l-0.352-13.273l-0.154-1.151
			l0.109-0.639l0.396-1.525l0.711-1.898l2.953-7.428l0.936-2.369l0.596-1.423l4.133-10.431l0.818-0.953l2.791-2.762l3.26-3.811
			l1.477-1.737l-0.072-2.291l1.773,0.181l0.686-8.865v-0.633l-0.045-0.706l-0.127-1.815l-0.414-6.176v-2.214l-0.107-0.627
			l-1.549-2.214l-0.703-1.109l-0.234-0.313L419.114,475.464z">
		</path>
		<path 
			id="east-side" 
			name="East Side"
			d="M481.961,462.628l2.721-1.545l5.32,11.299l1.062,1.743l-0.018,1.352l-0.01,1.104l-0.656,0.718l-0.324,0.856l-0.062,1.604
			l0.152,1.394l0.504,1.2l0.324,0.682l-0.018,1.707l-4.719,3.322l2.359,4.584l-1.656,2.37l0.945,1.58l3.285,2.273v1.423v1.11
			l-1.178,1.423l0.115,3.159l-0.115,1.58l0.115,0.32l-0.09,2.526l-0.025,0.79l0.115,2.688v2.189v0.657v2.267v0.735v2.074v0.771
			l0.117,2.684l-0.809-0.296l-1.549-0.338h-1.297h-1.414h-1.18l-0.09,5.691l-0.027,2.369v3.321h-2.836h-1.414l-1.414-0.156
			l-1.422,0.156h-4.25v3.003h-1.297h-1.646h-1.424h-0.936h-0.596l-0.115-11.695v-2.846v-2.683l-0.117-3.009v-2.84l0.117-2.847
			l-0.117-1.109l0.117-1.893l1.295-2.689l-1.646-0.157h-0.711l0.467-6.959l4.133-5.373v-0.477v-4.264l-0.828-6.96l-0.352-1.894
			l0.83-0.634l0.467-2.533l-0.584-2.214l0.17-1.767l0.062-0.604l2.711,0.319l0.477-1.423l-0.711-0.634l-1.891-1.743l0.396-0.458
			l0.666-0.803l2.602-1.743L481.961,462.628z">
		</path>
		<path 
			id="west-pullman" 
			name="West Pullman"
			d="M363.245,535.385h1.414l1.422-0.156l1.414,0.156l1.414-0.156l1.422,0.156l1.053-0.156h0.361l0.234-0.006l0.35,0.006l0.83,0.156
			l1.529,0.157l2.604-0.157l3.07-0.156h1.295l1.414,0.156l1.414-0.156h1.307h0.936h0.359l-0.117,1.104l-0.117,0.952l-0.359,1.893
			l-0.352,2.212l-0.117,1.423l-0.477,1.899l-0.234,1.893l-0.117,1.422l-0.352,1.423l-1.943,11.692l-0.658,3.947l-1.494,11.715
			l-0.838-0.006l-0.729-0.018l-0.479-0.157l-0.584-3.157l-2.242-0.952l-3.432,0.633l-0.404,0.367l-3.484,2.79l-3.422,2.845
			l-0.594,0.162h-4.467h-1.809h-5.402l-6.609,0.627l0.117-1.103l-0.117-0.789l0.117-3.634l-0.117-4.11h0.584h1.414h1.541h1.412
			h1.541l-0.244-3.157v-2.688l-0.117-1.892l0.117-0.946l-0.117-2.845h-1.529h-1.414h-1.424h-1.529h-1.297h-1.424h-1.412h-1.531
			h-1.422l-1.531,0.156h-1.414h-1.422h-1.531h-1.18h-1.062h-2.125l0.117-2.845l-0.117-2.688l-0.117-3.002l0.117-3.002l-0.117-2.845
			v-2.839V538.7l-0.117-2.839l1.297,0.156l0.477-0.156h1.055h0.945h0.711h1.18h1.531h1.422l1.414-0.163l1.414,0.163h1.422h1.414
			h1.414l1.412-0.163h2.125h3.666l1.295-0.156l0.83,0.156h0.818l1.18-0.156h1.539h1.414l1.414-0.157h1.656H363.245z">
		</path>
		<path 
			id="rivedale" 
			name="Riverdale"
			d="M387.086,535.229h0.352l0.711-0.157l0.352,0.157l2.008-0.319h1.414l1.297-0.157h0.828l3.656,0.157l0.828,0.162h1.18l-0.396,1.525
			l-0.109,0.639l0.154,1.151l0.352,13.273l1.295,2.525l3.432,5.057l4.006,6.003l2.918,4.833l0.504,0.542l0.479,0.633l1.277,1.989
			l1.027,1.645l0.549,0.868l0.432,0.656l0.963,1.313l0.117,0.32l3.215,4.946l2.791,4.929l4.26,9.394l0.234,2.054h-1.414H420.6
			h-2.945l-2.115,0.121l-3.312,0.192l-7.916-0.156h-6.607h-2.945h-0.477h-2.711l-1.539,0.156h-1.648h-1.18l-2.475,0.156h-2.955
			v-1.892l0.234-1.422l-0.352-0.632l0.117-1.422l0.234-1.266l-0.117-1.735l-4.6-0.476l0.232-0.47l0.117-0.319l0.576-1.856
			l0.254-0.825l2.277-10.72l1.494-11.715l0.658-3.947l1.943-11.692l0.352-1.423l0.117-1.422l0.234-1.893l0.477-1.899l0.117-1.423
			l0.352-2.212l0.359-1.893l0.117-0.953L387.086,535.229z">
		</path>
		<path 
			id="hegwisch" 
			name="Hegewisch"
			d="M478.198,535.861l1.414,0.156h1.414h2.836v-3.321l0.027-2.369l0.09-5.691h1.18h1.414h1.297l1.549,0.338l0.809,0.296v3.792
			l0.127,11.852l-0.1,1.241l-0.027,0.344v7.106v1.267v0.633v1.422l0.072,0.633l0.055,0.471l-0.127,0.319v9.16l-0.117,1.579
			l0.244,8.058v1.422v6.321l-0.127,2.524l0.02,0.319l0.197,4.579l0.027,0.633v1.735v0.789l-0.09,2.073l-0.027,0.771v2.844
			l0.08,2.361l-0.369,0.007h-0.656l-0.244,0.156l-0.467-0.156l-14.047,0.156h-1.18L472.77,600h-0.947l-0.594-0.163h-0.701h-0.361
			l-0.234-0.312l-0.467,0.156l-0.596-0.156l-11.092,0.156l-6.492,0.156l-0.586-0.156l-0.711,0.156l-0.945-0.312h-0.828l-1.883-0.157
			l-2.24,0.157l-16.883-0.157l-0.234-2.054l-4.26-9.394l-2.791-4.929l-3.215-4.946l-0.117-0.32l-0.963-1.313l-0.432-0.656
			l-0.549-0.868l2.143,0.199l2.701,0.259l1.818,0.331l6.375,0.471l5.547,0.319l0.945-0.163h13.334h0.352l1.891-0.156l0.117-4.894
			v-9.636l0.586-0.319l2.242-2.688l2.836,5.846l0.234,0.477l0.828,1.579l2.008,3.477l0.404,0.398l0.893,0.867l1.529,1.26
			l1.541,0.952l1.062,0.789l1.062,0.946l1.881,1.266l-2.125-13.902l1.891-9.167l-0.117-11.688v-2.688h0.596h0.936h1.424h1.646h1.297
			v-3.003h4.25L478.198,535.861z">
		</path>
		<path 
			id="garfield-ridge" 
			name="Garfield Ridge"
			d="M232.246,318.811l2.593-0.156l3.07,0.156v1.269l0.117,1.269l-0.117,1.426l0.117,1.583l0.243,0.791l-0.126,4.911l0.126,2.852
			l0.117,2.845v3.008l0.117,2.536l-0.234,3.008l0.351,3.008l-0.018,0.332l-0.099,2.52l0.234,3.164l-0.117,1.268l0.117,3.165
			l0.117,3.327v2.688v0.791v3.007l0.117,2.851v2.85v3.007h-1.414h-1.296l-1.54,0.157l-1.531-0.157l-11.444,0.319h-11.336
			l-3.421,0.314h-0.468h-0.711l-1.296,0.157H203.1h-1.54l-1.414,0.163h-1.414h-1.54h-1.296h-1.414l-1.414,0.156h-1.54h-1.414h-1.414
			l-1.423,0.158h-1.53l-1.54,0.156h-1.414h-1.414h-1.414h-1.54l-1.414,0.157h-1.414h-1.422h-1.414l-1.531,0.163l-1.296-0.163
			l-1.54,0.163h-1.531h-1.422l-1.414,0.156l-0.117-1.424v-1.582l-0.117-1.269v-1.582l-0.117-2.85v-2.851v-2.529v-0.635l-0.117-0.634
			v-2.06l-0.117-1.425l-0.009-1.552l5.339-2.983l0.45-0.212h0.351h1.18l1.422,0.158h1.531l1.414-0.158h1.423h1.414l1.414-0.156
			h1.531h1.422h1.414l1.531-0.163h1.423h1.414h1.414h1.54l0.819-0.157h0.594h1.414l1.297-0.156h1.54h1.414h1.414h0.594h0.829h1.18
			h0.351l1.531-0.158l1.188,0.158l1.296-0.158h0.234l1.648-0.156l1.423,0.156l1.414-0.156l1.296,0.156l1.54-0.156h1.414h1.414
			l1.54-0.163h1.414l1.414-0.157v-2.688v-2.851l-0.117-3.008v-1.902v-0.948v-3.008L221,336.214l-0.198-2.676v-0.948l5.069-2.061
			l0.306-0.12l4.295-1.776v-0.954v-0.472l-0.117-0.477l0.117-0.635v-1.896v-0.955l-0.117-1.582l0.117-2.852H232.246z">
		</path>
		<path 
			id="archer-heights" 
			name="Archer Heights"
			d="M267.064,341.143v2.053v1.27l-2.837,3.799l-8.139,4.275l-0.117,0.791l-2.953,1.582l-2.711,1.582l-0.126,1.269v0.948h-1.413
			l-1.414,0.163l-1.296,0.157l-1.423,0.156l-1.54-0.127l-1.648-0.187l0.117,0.954l0.045,0.966l-2.755,0.296l-0.117-3.327
			l-0.117-3.165l0.117-1.268l-0.234-3.164l0.099-2.52l0.018-0.332l-0.351-3.008l0.234-3.008l-0.117-2.536v-3.008l-0.117-2.845
			l-0.126-2.852l0.126-4.911l-0.243-0.791l13.102-5.702l4.366-2.061l3.188-1.42l6.141-2.694l1.882-0.635l-0.234,1.426v1.106v1.111
			l0.117,1.269l0.117,1.263l0.18,11.562l0.181,11.083V341.143z">
		</path>
		<path 
			id="brighton-park" 
			name="Brighton Park"
			d="M289.367,302.661l7.438-3.172l0.468-0.314l1.062-0.32l-0.117,4.121v1.426v1.583v2.852l0.469,2.695l0.945,1.739l0.243,0.635
			l-0.478,0.313l-0.352,0.32l0.945,1.583v1.74h1.297h0.234l0.405,0.019l-0.054,0.302l0.242,1.583l-0.098,4.851l-0.027,1.323v3.165
			l0.125,5.702l0.117,1.426l0.117,4.119l-0.711,0.156l0.234,1.426l-0.117,1.582l0.117,3.165h-1.531l-1.413-0.024l-1.423-0.018
			l-1.576-0.024l-5.734-0.091l-9.797,0.314l-1.773,0.163h-0.829h-3.421h-4.484l-2.477,0.791l-0.351-3.327v-1.27v-2.053v-0.478
			l-0.181-11.083l-0.18-11.562l-0.117-1.263l-0.117-1.269v-1.111v-1.106l0.234-1.426l11.219-4.749l1.999-0.791l8.032-3.172
			L289.367,302.661z">
		</path>
		<path 
			id="mckinley-park" 
			name="McKinley Park"
			d="M323.942,292.522l1.891-0.634l0.234,0.634l0.477,1.583l0.469,1.583l2.359,3.329l4.25,5.541l0.117,0.791v4.453v1.408l-0.234,0.948
			v1.111l0.352,1.74l1.422,1.426l0.703,0.478h-0.703h-1.062l-2.242,0.156h-1.18h-2.602l-1.396,0.061l-2.492,0.098l-2.838-0.158
			l-1.529,0.158h-1.541l-1.18-0.158h-1.529l-1.414,0.158h-1.539h-1.414h-0.594l-8.734,0.319l-0.063,0.333l-0.405-0.019h-0.234
			h-1.297v-1.74l-0.945-1.583l0.352-0.32l0.478-0.313l-0.243-0.635l-0.945-1.739l-0.469-2.695v-2.852v-1.583v-1.426l0.117-4.121
			l2.719-1.263l0.703-0.157l5.195-2.224l1.414-0.471l1.18,0.157l2.953,0.314l2.359-0.157l3.303-0.157h0.479l1.297,0.157l1.881-0.635
			l0.477-0.471L323.942,292.522z">
		</path>
		<path 
			id="bridgeport" 
			name="Bridgeport"
			d="M333.739,305.35l-0.117-0.791l-4.25-5.541l-2.359-3.33l-0.469-1.583l-0.477-1.583l-0.234-0.634l-0.352-0.949l-0.117-1.904
			l0.352-2.375l0.828-1.269l0.352-1.741l2.836-1.904l2.711-2.689l1.297,0.157l8.662-2.079l4.555-1.088l1.891-0.163l0.234-0.314
			l0.713-0.157l0.945,0.635l0.467,0.314l0.479,0.157l0.584,0.478v0.792l0.117,0.477l0.117,0.792l-0.117,0.628l0.117,0.635v0.32
			l1.891-0.157l1.658,0.157l0.232,0.792l0.117,0.471v1.426l-0.117,1.589l0.352-0.163h0.828h0.586h0.594v1.426l-0.117,0.32
			l0.117,1.106v1.269l0.234,1.426l0.117,1.106l-0.234,0.792v1.112l0.352,3.009l0.117,2.852l-0.938,0.157l0.234,5.547l0.117,5.86
			l-0.117,0.948l0.027,0.472l0.09,1.426l2.953,3.009h-2.953h-1.414h-1.305h-1.648h-1.297h-1.422h-1.414h-1.412H347.2l-5.672,0.32
			h-5.547l-0.703-0.478l-1.422-1.426l-0.352-1.74v-1.111l0.234-0.948v-1.408V305.35z">
		</path>
		<path 
			id="new-city" 
			name="New City"
			d="M348.018,362.986h-2.826l-2.953,0.156h-1.414h-1.422l-1.414-0.156l-1.297-0.157l-3.07,0.313h-2.828h-1.305h-1.531l-1.414,0.164
			h-1.422h-1.531h-1.412l-1.414,0.156l-1.424-0.156h-1.412h-1.531h-1.189l-1.646,0.156h-1.297h-1.539h-2.242l-0.234-1.268
			l-0.117-1.582v-1.269l-0.117-2.216l-0.234-1.426v-2.216l-0.117-1.425v-1.583l0.234-1.104l-0.117-1.426v-1.111l-0.117-0.628
			l-0.594-0.163l-2.594,0.163h-2.125l-0.477,0.471l-0.117-3.165l0.117-1.582l-0.234-1.426l0.711-0.156l-0.117-4.119l-0.117-1.426
			l-0.125-5.702v-3.165l0.027-1.323l0.098-4.851l-0.242-1.583l0.054-0.302l0.063-0.333l8.734-0.319h0.594h1.414h1.539l1.414-0.158
			h1.529l1.18,0.158h1.541l1.529-0.158l2.838,0.158l2.492-0.098l1.396-0.061h2.602h1.18l2.242-0.156h1.062h0.703h5.547l5.672-0.32
			h1.531h1.412h1.414h1.422h1.297h1.648h1.305h1.414l0.234,2.694l0.117,4.591v0.163l0.117,1.263l0.477-0.314l0.234,1.426
			l-0.117,1.263v0.32l-0.197,1.401l-0.154,0.023v1.088l-0.188,1.293l-0.289,2.053v3.643l0.162,0.949l0.189,1.111l0.242,11.71
			l0.234,10.925v0.791l-3.07-0.157l-2.709,0.157l-0.83-0.157l-2.24,0.313L348.018,362.986z">
		</path>
		<path 
			id="west-elsdon" 
			name="West Elsdon"
			d="M267.064,344.465l0.351,3.327v4.59v0.791l-0.117,1.269l0.117,1.582v2.53v2.851v3.007v1.425v1.426l0.117,1.425v1.425v1.426
			l0.117,1.424l-0.117,1.426l0.117,1.424l-2.827,0.158h-2.953l-2.837,0.156l-2.709-0.156h-1.414h-1.423l-1.413,0.156h-1.531
			l-1.297-0.156h-1.539l-1.531,0.156h-1.296h-1.54h-1.296l-1.531,0.157h-1.54v-3.007v-2.85l-0.117-2.851v-3.007v-0.791v-2.688
			l2.755-0.296l-0.045-0.966l-0.117-0.954l1.648,0.187l1.54,0.127l1.423-0.156l1.296-0.157l1.414-0.163h1.413v-0.948l0.126-1.269
			l2.711-1.582l2.953-1.582l0.117-0.791l8.139-4.275L267.064,344.465z">
		</path>
		<path 
			id="gage-park" 
			name="Gage Park"
			d="M301.874,346.681l0.477-0.471h2.125l2.594-0.163l0.594,0.163l0.117,0.628v1.111l0.117,1.426l-0.234,1.104v1.583l0.117,1.425v2.216
			l0.234,1.426l0.117,2.216v1.269l0.117,1.582l0.234,1.268l-0.234,0.791v2.217l-0.117,5.699v0.635v2.373l-1.648,0.156l-0.828-0.156
			l-1.656,0.156l-1.531,0.157l-1.539-0.313l-1.414,0.156l-1.414-0.156l-1.413,0.156h-1.423h-1.53l-1.413,0.157h-1.424h-1.413h-1.53
			h-1.424l-1.413,0.157l-1.404,0.042l-1.423-0.042h-1.539h-1.531h-1.423h-1.413h-1.414l-1.414,0.162h-1.539h-1.414h-2.593h-0.36
			l-0.117-1.424l0.117-1.426l-0.117-1.424v-1.426v-1.425l-0.117-1.425v-1.426v-1.425v-3.007v-2.851v-2.53l-0.117-1.582l0.117-1.269
			v-0.791v-4.59l2.477-0.791h4.484h3.421h0.829l1.773-0.163l9.797-0.314l5.734,0.091l1.576,0.024l1.423,0.018l1.413,0.024H301.874z">
		</path>
		<path 
			id="clearing" 
			name="Clearing"
			d="M210.411,376.602h11.336l11.444-0.319l1.531,0.157l1.54-0.157h1.296h1.414l0.117,2.85l0.117,2.85l-0.117,2.06l0.117,0.79
			l0.126,1.739v1.11l-0.126,2.85l0.072,1.647l0.054,1.359l0.054,1.424l0.063,1.425l0.054,1.419l0.063,1.425h-1.54l-1.531,0.162
			h-1.296h-1.423l-0.117-2.215v-0.634l0.117-2.85h-1.53l-1.414-0.156l-1.54,0.156h-1.296l-0.468,0.157h-1.891l-3.422,0.157
			l-1.179-0.157l-1.774,0.157h-1.414h-1.414l-2.836,0.156h-2.827l-2.485,0.164h-0.468h-2.476l-0.36-0.164l-2.827,0.164l-2.954,0.156
			l-2.953,0.156h-2.827h-2.954l-2.827,0.158h-2.836l-0.468,0.162h-2.485l-2.827,0.157l-2.954-0.157h-2.827h-1.422l-1.531,0.157
			l-3.07,0.157l-2.71,0.477l-0.126-2.059l-0.117-1.268v-0.477l-0.234-0.948v-1.425l0.234-1.424l-0.117-1.426l-0.117-1.262
			l0.117-1.424l-0.117-1.426v-1.424l-0.117-1.426l0.117-1.582l1.414-0.156h1.422h1.531l1.54-0.163l1.296,0.163l1.531-0.163h1.414
			h1.422h1.414l1.414-0.157h1.54h1.414h1.414h1.414l1.54-0.156h1.53l1.423-0.158h1.414h1.414h1.54l1.414-0.156h1.414h1.296h1.54
			h1.414l1.414-0.163h1.54h1.414l1.296-0.157h0.711h0.468L210.411,376.602z">
		</path>
		<path 
			id="west-lawn" 
			name="West Lawn"
			d="M267.649,375.811h0.36l0.117,1.582v1.426v1.424l0.116,1.426v1.418l0.469,1.745l-0.234,1.425l0.117,1.582l-0.234-0.477
			l-0.117,1.424l0.117,1.582l-0.026,1.383l0.026,1.31l0.117,3.007l-0.054,1.37l0.054,1.479v1.425l0.117,1.581v1.268l-0.117,1.425
			l0.1,1.527l0.126,1.321l0.099,1.413l0.145,1.273l-0.153,1.672l-0.054,1.545l-0.018,2.771l-0.037,1.437l0.072,1.551l-0.045,2.257
			l-6.131-3.476l-5.43-3.326l0.009,1.068l0.108,7.158v1.268v0.947v0.319v1.425l0.117,0.634l-2.594,0.156h-3.664l-5.07,0.157
			l-5.69,0.519l-1.279,0.115h-1.531l-2.962,0.078l0.009-0.398v-0.627l-0.117-1.268l-0.117-0.477l0.117-3.796v-0.948v-2.691v-1.104
			l-0.468-3.169v-0.79l-0.117-7.116v-0.477l-0.126-0.478v-0.947v-0.314v-0.477v-3.954h1.423h1.296l1.531-0.162h1.54l-0.063-1.425
			l-0.054-1.419l-0.063-1.425l-0.054-1.424l-0.054-1.359l-0.072-1.647l0.126-2.85v-1.11l-0.126-1.739l-0.117-0.79l0.117-2.06
			l-0.117-2.85l-0.117-2.85h1.54l1.531-0.157h1.296h1.54h1.296l1.531-0.156h1.539l1.297,0.156h1.531l1.413-0.156h1.423h1.414
			l2.709,0.156l2.837-0.156h2.953L267.649,375.811z">
		</path>
		<path 
			id="chicago-lawn" 
			name="Chicago Lawn"
			d="M290.897,375.491h1.424l1.413-0.157h1.53h1.423l1.413-0.156l1.414,0.156l1.414-0.156l1.539,0.313l1.531-0.157l1.656-0.156
			l0.828,0.156l1.648-0.156l0.117,8.072l0.352,1.738l0.359,1.902l-0.234,1.738l0.117,0.791v3.163l0.234,5.541l-0.234,2.692
			l0.117,1.419l0.117,1.587l-0.117,1.425v1.262l0.117,1.268l-0.234,1.901v1.418v1.425v0.477l-0.117,2.372l0.703,5.54h-0.703h-3.43
			h-1.766l-4.25,0.157h-1.53l-5.79,0.157l-11.678,0.319h-5.547l-1.539,0.157l-4.484-0.32l0.045-2.257l-0.072-1.551l0.037-1.437
			l0.018-2.771l0.054-1.545l0.153-1.672l-0.145-1.273l-0.099-1.413l-0.126-1.321l-0.1-1.527l0.117-1.425v-1.268l-0.117-1.581v-1.425
			l-0.054-1.479l0.054-1.37l-0.117-3.007l-0.026-1.31l0.026-1.383l-0.117-1.582l0.117-1.424l0.234,0.477l-0.117-1.582l0.234-1.425
			l-0.469-1.745v-1.418l-0.116-1.426v-1.424v-1.426l-0.117-1.582h2.593h1.414h1.539l1.414-0.162h1.414h1.413h1.423h1.531h1.539
			l1.423,0.042l1.404-0.042l1.413-0.157h1.424h1.53H290.897z">
		</path>
		<path 
			id="west-englewood" 
			name="West Englewood"
			d="M332.208,420.753H330.2h-2.008h-1.766l-1.539,0.156l-1.297-0.156l-0.215,0.018l-1.314,0.139h-1.541l-1.18-0.156h-1.412h-1.658
			l-1.295,0.156h-3.656h-1.891l-0.703-5.54l0.117-2.372v-0.477v-1.425v-1.418h0.82h-0.82l0.234-1.901l-0.117-1.268v-1.262
			l0.117-1.425l-0.117-1.587l-0.117-1.419l0.234-2.692l-0.234-5.541v-3.163l-0.117-0.791l0.234-1.738l-0.359-1.902l-0.352-1.738
			l-0.117-8.072v-2.373v-0.635l0.117-5.699v-2.217l0.234-0.791h2.242h1.539h1.297l1.646-0.156h1.189h1.531h1.412l1.424,0.156
			l1.414-0.156h1.412h1.531h1.422l1.414-0.164h1.531h1.305h2.828l3.07-0.313v0.313v2.851V369l0.117,2.851v1.11l-0.117,1.739
			l0.117,3.007l0.117,2.85v3.007v2.692l0.234,0.791v2.059l0.125,2.844v2.85v2.849l0.117,2.85l0.234,2.849v3.006v2.692v1.581
			l0.117,1.425v1.424v1.425v1.581v1.425l0.234,1.261v1.268l-3.539,0.157L332.208,420.753z">
		</path>
		<path 
			id="englewood" 
			name="Englewood"
			d="M336.692,362.829l1.297,0.157l1.414,0.156h1.422h1.414l2.953-0.156h2.826l2.838,0.156l2.24-0.313l0.83,0.157l2.709-0.157
			l3.07,0.157l1.297-0.314h1.414l1.305-0.156h0.469l0.711,0.156l0.117-0.156h0.469l0.828-0.164h1.414v0.791l0.234,5.066
			l-0.117,1.582l0.234,4.432l-0.117,0.635l0.117,2.216v1.901v1.582l-0.82,0.157l0.117,2.216v2.059v0.791l-1.414,0.477l0.117,2.059
			v0.948v0.313v0.791l-0.117,1.268l-0.242,0.635l0.117,1.895l0.125,3.013h-1.062l-0.242,1.896l-0.117,3.64l-1.18,0.32l-0.469-0.163
			h-1.062l-0.117,2.849l-1.422,0.32l0.242,2.686l-0.207,2.523l-0.035,0.325l0.477,0.157l-0.117,3.006l-0.117,2.535l-1.062,0.313
			l-0.242,2.691h-1.062h-0.352h-1.648h-0.594h-0.711l0.127,2.849h-0.127h-0.586l-0.594,0.157h-1.414l-1.297,0.157l-1.656-0.157
			l-0.234-3.162l-1.062,0.156l-1.529-0.156h-1.541l-1.412,0.156l-1.18,0.157l-1.414-0.313l-1.414,0.313h-1.539v-1.268l-0.234-1.261
			v-1.425v-1.581v-1.425v-1.424l-0.117-1.425v-1.581v-2.692v-3.006l-0.234-2.849l-0.117-2.85v-2.849v-2.85l-0.125-2.844v-2.059
			l-0.234-0.791v-2.692v-3.007l-0.117-2.85l-0.117-3.007l0.117-1.739v-1.11L336.692,369v-3.007v-2.851V362.829z">
		</path>
		<path 
			id="greater-grand-crossing" 
			name="Greater Grand Crossing"
			d="M360.534,408.724l-0.242-2.686l1.422-0.32l0.117-2.849h1.062l0.469,0.163l1.18-0.32l0.117-3.64l0.242-1.896h1.062l-0.125-3.013
			l-0.117-1.895l0.242-0.635l0.117-1.268v-0.791v-0.313v-0.948l-0.117-2.059l1.414-0.477v-0.791v-2.059l-0.117-2.216l0.82-0.157
			l0.477,0.157l1.531-0.157h1.295l0.127,4.746l0.117,0.797l0.352-0.037l1.412-0.283l2.01-0.157l1.891,0.157l-0.117-0.314h2.008H380
			h0.479l0.27-0.072l0.314-0.09h1.773v2.85l0.117,2.849l0.117,2.536l0.117,3.006l2.836,2.849l0.945,0.948l1.648,1.738l0.594,0.634
			l1.766,1.738l3.898,3.483l-0.117-3.954l-0.117-1.744l-0.117-2.844v-3.006h1.531h1.297h1.531h1.305l1.531-0.163l1.529,0.163
			l1.307-0.163h1.414h1.891l1.881-0.156h0.945l-0.584,4.431l0.35,1.738l0.117,2.378v0.634l-0.117,1.419l-0.117,0.953l-0.35,0.314
			h-0.828v1.268l0.117,0.477l0.232,1.262l-0.584,1.11l0.234,1.581h-1.414v3.162l-0.127,2.85h-0.352l0.352,0.477l0.711,0.634
			l1.062,1.418l-0.467,0.319l-0.479,0.157l-1.295-0.477h-0.947l-0.232,2.849l0.467,0.163l0.244,2.842l0.234,2.849l-1.775,0.157
			l-0.232-0.157l-0.945-0.157h-1.297h-1.531l-1.539,0.157l-1.414,0.157l-1.297-0.157h-1.773l-1.18,0.157l-1.297,0.162l-1.539-0.162
			h-1.414l-1.414,0.162l-1.414-0.162l-1.422,0.162l-1.531,0.157l-1.773,0.157l-2.008-0.157l-1.881,0.157h-1.891l-2.008,0.156
			l-1.766-0.156h-0.594l-0.828,0.156l-0.586-0.156h-0.945h-1.539l-1.414,0.156h-1.414l-1.297,0.163h-1.422l-1.414-0.163
			l-1.531,0.163h-1.422l-1.18,0.157h-0.234h-0.945h-0.818l-0.479-0.157l-0.117-2.848v-2.692l-0.117-3.162h0.586h0.127l-0.127-2.849
			h0.711h0.594h1.648h0.352h1.062l0.242-2.691l1.062-0.313l0.117-2.535l0.117-3.006l-0.477-0.157l0.035-0.325L360.534,408.724z">
		</path>
		<path 
			id="ashburn" 
			name="Ashburn"
			d="M233.272,428.091l-0.004,0.815l0.019,0.206l-0.018,1.111l1.343,0.034v-0.61l-0.036-0.766l0.018-0.459l2.962-0.078h1.531
			l1.279-0.115l5.69-0.519l5.07-0.157h3.664l2.594-0.157l-0.117-0.633v-1.425v-0.319v-0.947v-1.268l-0.108-7.158l-0.009-1.068
			l5.43,3.326l6.131,3.476l4.484,0.32l1.539-0.157h5.547l11.678-0.319l5.79-0.157h1.53l4.25-0.157h1.766h3.43h0.703l0.045,4.43
			l0.018,1.262l0.01,1.267l0.018,1.425l0.027,3.325l-0.234,1.424v1.418v5.854l0.125,1.46l0.109,1.23l0.828,3.162l2.359,4.114
			l0.828,1.424l1.646,2.848h-0.467h-3.188l-1.648,0.157h-5.672l-5.781,0.157h-0.234h-0.711h-0.819h-0.945l-0.36,0.156l-1.414-0.156
			h-1.413l-1.413,0.156h-1.657h-1.297h-1.296h-0.234l-1.189,0.477l-1.764-0.313h-1.297l-1.423-0.163l-11.327,0.477h-0.352h-2.602
			h-2.827l-2.837,0.157h-2.358h-0.585l-1.062-0.157l-0.478,0.313h-1.18h-1.413h-1.54l-0.468,0.163h-0.828l-1.414-0.163l-1.414,0.163
			l-1.539-0.163l-0.469,0.163h-0.945h-1.531l-1.306,0.157h-1.296h-0.702l-0.946,0.313l-1.296-0.157l-1.422-0.156h-1.882l0.144-1.122
			l0.207-1.568v-1.424l-0.117-1.581v-0.634l-0.117-0.634v-1.58v-3.005l-0.117-5.853l-0.243-5.69l-0.117-0.634l0.009-1.864
			l-0.009-0.67l-5.755,0.021l-0.053-1.751l0.03-1.451l5.778-0.295v0.627L233.272,428.091z">
		</path>
		<path 
			id="auburn-gresham"
			name="Auburn Gresham"
			d="M337.989,420.433h1.539l1.414-0.313l1.414,0.313l1.18-0.157l1.412-0.156h1.541l1.529,0.156l1.062-0.156l0.234,3.162l1.656,0.157
			l1.297-0.157h1.414l0.594-0.157l0.117,3.162v2.692l0.117,2.848l0.479,0.157v2.686h0.35l-0.234,1.743v1.104l0.352,1.581v1.268
			l-0.117,1.109l0.117,1.581l0.828,0.157l1.18-0.313l1.414,0.313l0.117-1.11l2.242,1.267l0.359,5.539l-0.242,1.262l-0.117,2.377
			l0.117,1.261l-0.117,1.267l0.117,2.528v2.848l0.359,2.376v1.418l0.234,1.9l-1.531,0.313h-1.539h-1.414h-1.539h-1.414l-1.297,0.163
			l-1.412-0.163h-1.424l-1.297,0.163v-1.743l-3.305,2.057l-0.467-0.156l0.701-2.848l0.361-1.737l0.467-1.267h-0.232l-0.596-0.157
			l-1.529-0.157l-1.414,0.157l-1.297,0.157h-0.242h-1.18h-1.414l-1.531-0.157h-1.539h-1.414l-1.414,0.157l-1.422-0.157l-1.531,0.157
			h-1.414l-1.295,0.156h-1.541h-1.297l-0.117,1.581l0.117,1.58l-1.412-0.156h-0.479l-0.521,0.09l-0.424,0.066h-0.584l-1.18-1.58
			l-4.729-7.113l-1.646-2.848l-0.828-1.424l-2.359-4.114l-0.828-3.162l-0.109-1.23l-0.125-1.46v-5.854v-1.418l0.234-1.424
			l-0.027-3.325l-0.018-1.424l-0.01-1.268l-0.018-1.262l-0.045-4.43h1.891h3.656l1.295-0.156h1.658h1.412l1.18,0.156h1.541
			l1.314-0.139l0.215-0.018l1.297,0.156l1.539-0.156h1.766h2.008h2.008l2.242-0.163L337.989,420.433z">
		</path>
		<path 
			id="beverly" 
			name="Beverly"
			d="M304.233,455.708h5.672l1.648-0.157h3.188h0.467l4.729,7.113l1.18,1.58l0.828,2.848l0.467,0.633l4.25,10.912l1.414,3.951
			l0.838,1.984l2.232,5.289l1.297,4.27l0.117,0.634l2.359,4.739l0.594,1.58l0.469,0.163l-0.586,0.79l-0.711,2.057l-0.586,2.369
			l-0.242,0.634l-0.352,1.423l-1.297,4.426h-1.891h-2.125l-2.711,0.156h-2.602l-2.711,0.157l-0.594-0.157h-0.352h-0.232h-1.414
			h-0.711h-0.945h-0.469l-1.297,0.157l-0.359-0.157l-1.18-0.156l-1.414,0.313h-1.414h-1.422h-1.297l-1.414,0.157h-1.539h-1.414
			h-1.414l-1.18,0.156h-0.477h-1.297h-0.828l-0.586,0.163l-0.945-0.163l-0.711,0.163l-1.297-0.163h-5.78l-0.233-11.535v-1.423h3.061
			l2.72,0.156l-0.234-1.58l0.117-1.58v-1.423l-0.117-1.423l-0.117-1.424v-1.423l0.117-1.267l1.413-0.157l1.414-0.156l1.54,0.156
			h1.413h0.945h1.766h1.539h1.531l-0.117-3.003v-3.004l-0.117-2.689l-0.117-2.848l-0.117-1.423v-1.418v-4.113l-0.234-4.904v-2.685
			l-0.125-1.267V455.708z">
		</path>
		<path 
			id="washington-heights" 
			name="Washington Heights"
			d="M327.374,461.083l1.295-0.156h1.414l1.531-0.157l1.422,0.157l1.414-0.157h1.414h1.539l1.531,0.157h1.414h1.18h0.242l1.297-0.157
			l1.414-0.157l1.529,0.157l0.596,0.157h0.232l-0.467,1.267l-0.361,1.737l-0.701,2.848l0.467,0.156l3.305-2.057v1.743l1.297-0.163
			h1.424l1.412,0.163l1.297-0.163h1.414h1.539h1.414h1.539l1.531-0.313l0.082,3.951l0.018,1.267l0.008,0.368l0.082,4.06l0.045,2.214
			l-0.352,2.847l0.117,3.004l0.117,2.847l0.117,1.58l0.117,0.477v0.79l-0.117,1.423l-0.117,1.58v1.267v1.58v1.261v1.586l0.234,1.423
			l0.117,1.104h-0.469l-2.242,0.313h-1.414h-1.422h-1.531h-1.297h-1.422h-1.414v2.847v2.846l0.117,3.003v2.847h-1.297h-1.412
			l-1.541,0.156h-1.297h-2.24h-1.648l-1.773,0.163h-0.586h-1.656h-0.711h-0.82h-2.125h-0.828h-0.711h-0.469l1.297-4.426l0.352-1.423
			l0.242-0.634l0.586-2.369l0.711-2.057l0.586-0.79l-0.469-0.163l-0.594-1.58l-2.359-4.739l-0.117-0.634l-1.297-4.27l-2.232-5.289
			l-0.838-1.984l-1.414-3.951l-4.25-10.912l-0.467-0.633l-0.828-2.848h0.584l0.424-0.066l0.521-0.09h0.479l1.412,0.156l-0.117-1.58
			l0.117-1.581h1.297H327.374z">
		</path>
		<path 
			id="mount-greenwood" 
			name="Mount Greenwood"
			d="M258.798,491.128l1.423-0.157h1.413l1.413-0.163h1.531h1.423h1.53h1.414l0.243,3.01h1.296v2.684v3.003v2.847l1.297,0.157
			l1.531-0.314l1.539,0.157l1.414-0.157h1.414l1.422,0.157l1.414-0.157l1.53-0.156l0.117-1.267l3.304-0.156h1.424h1.062v1.423
			l0.233,11.535l0.234,10.117l0.117,1.423l0.116,5.691l-0.468-0.157h-0.595h-0.701h-1.424l-1.296,0.157l0.117,1.103l0.117,1.267
			l-0.117,0.633h-1.413v0.946l0.116,2.056l-1.513,0.078l-1.432,0.079h-2.836v1.422l-0.045,0.555l-0.072,0.868l0.234,1.736
			l-0.117,0.952l-2.719,0.313h-2.945h-1.296v-1.423h-0.595l-0.117-0.789l0.712-0.157v-0.476v-1.58v-1.422l-1.774,0.319l-2.836-0.163
			h-2.827h-1.891h-1.18h-1.296h-1.297h-1.657l-0.702,0.163l-0.586-0.121l-1.639,0.108l-2.502,0.169l-2.945,0.157h-7.788
			l-2.485,0.156l-0.234-11.695h1.296l1.54-0.156h2.827h2.953h1.414h1.539l5.07-0.313h1.656l4.601-0.163v-2.683v-2.846l-0.116-1.736
			l-0.117-3.956v-1.423l0.117-1.579l-0.117-1.424l-0.117-1.423v-1.423v-1.423v-2.841l-0.244-3.003l0.064-1.423l0.053-1.424
			l-0.233-2.846v-1.424V491.128z">
		</path>
		<path 
			id="morgan-park" 
			name="Morgan Park"
			d="M288.539,525.116l6.023-0.004l-0.117-2.846l-0.126-3.003l-0.234-3.002l-0.117-2.689l1.297,0.163l0.711-0.163l0.945,0.163
			l0.586-0.163h0.828h1.297h0.477l1.18-0.156h1.414h1.414h1.539l1.414-0.157h1.297h1.422h1.414l1.414-0.313l1.18,0.156l0.359,0.157
			l1.297-0.157h0.469h0.945h0.711h1.414h0.232h0.352l0.594,0.157l2.711-0.157h2.602l2.711-0.156h2.125h1.891h0.469h0.711h0.828
			h2.125h0.82h0.711h1.656h0.586l1.773-0.163h1.648h2.24h1.297l1.541-0.156h1.412h1.297l0.117,2.846l0.117,3.003v2.846v3.002
			l0.127,2.689v2.525l0.117,3.159v3.002h-3.666h-2.125l-1.412,0.163h-1.414h-1.414h-1.422l-1.414-0.163l-1.414,0.163h-1.422h-1.531
			h-1.18h-0.711h-0.945h-1.055l-0.477,0.156l-1.297-0.156l0.117,2.839v3.009v2.839l0.117,2.845l-0.711,0.157h-0.82l-1.422,0.162
			l-1.297,0.157l-1.414-0.319h-0.35l-0.703,2.284l-0.127,0.403l-1.656-0.476l0.828-2.05h-0.945l-2.008,0.157h-0.818h-0.596
			l-0.35-0.157l-0.352,0.157h-1.307h-0.467l-1.658-0.157l-2.125,0.157h-2.357h-2.242h-1.414l-1.531,0.156l-1.305-0.156l-1.531,0.156
			h-0.945l0.477-1.422l0.586-1.58l-0.117-1.266l-0.117-1.579l0.117-1.423l-0.117-1.422v-1.423v-1.423h-0.352h-1.179h-1.54h-1.297
			h-1.296l-5.899,0.333l-0.125-6.018l0,0L288.539,525.116z">
		</path>
		<path 
			id="ohare" 
			name="O'Hare"
			d="M31.384,28.745l0.241-5.421l0.578,0.019l0.017,3.663l0.445,0.002l-0.076,1.582l6.356-0.157l0.011-5.709l2.467-0.005l0.635-0.186
			l11.026,4.785l1.332,0.815l-0.001,3.628l0.943-0.15l-0.013-0.808l0.723-0.65l1.935,0.165l1.229,0.849l-0.129,1.874l-5.451,0.145
			l-5.474-0.206l-4.377-2.665l-1.702,0.064l0.07,0.924l1.336,0.007l4.798,3.136l3.906-0.083l0.073,2.477l2.842,0.324l10.719,2.542
			l0.234,2.859v1.418l0.249,0.014l3.977-0.478l0.838,0.107l3.575,13.507l0.672,2.693l1.413,4.907l0.348,2.236l0.509,1.255
			l1.168,5.268l-0.583,0.186l-2.277,0.022l0.015,4.261l3.728,0.02l0.959,0.144l3.897-0.004l0.502,0.148l-0.104-0.77L85.91,77.5
			l-0.124,0.652l1.456-0.043l3.116,0.017l1.559-0.146l0.582,0.141l1.67-4.122l2.593-3.488l1.891-2.543l0.009-0.43l0.108-4.488
			l-0.027-1.302l-0.09-0.92l0.243-1.133l0.819-3.792l0.117-1.587l-0.927-1.03l11.426,2.774l1.179,0.157l10.625,2.065v0.793v1.314
			v0.273l0.117,0.957l-0.09,1.417l-0.027,0.479v3.186v1.108v0.793l0,0v0.636v0v0.314v0l0.117,2.064v0v0.763l0,0v0v0.187v0l0,0v0.321
			l-0.117,1.271v0v1.265v0l0,0v0.478l0.117,0.636l-0.117,0.636h-5.898v1.429l0.819-0.164h2.954h0.477l0.117,3.652l1.414,0.163v0.793
			l0.117,1.108l-1.414,0.158h-0.711h-0.829h-1.414l-0.945,0.164l-0.468-0.164l0.117-2.38v-0.612l-6.024-0.03v0.164v0.636
			l0.126,2.386v1.265v1.586l-0.126,2.858l1.423-0.157h1.531h1.54l1.296-0.158l0.946,0.158l0.468-0.158l0.946-0.157l0.585,0.157
			h1.423h1.531v2.065l-0.117,3.015v0.472l0.117,2.386l-0.117,0.793l0.117,0.315l-0.072,1.544l-0.045,0.835l0.234,5.557v3.172v2.857
			l-0.117,3.015l0.351,2.857l0.126,2.857l-0.126,2.694l1.422,0.163l0.117,3.014l0.234,3.486l0.117,2.221v2.542l-1.531,0.157
			l-9.445,0.315h-2.954l-3.421,0.164l-2.359-2.385l-2.215-7.16l-1.323-4.261l-0.468-1.744l-0.36-2.857l1.423-3.971l7.428-0.473
			l0.117-1.586l-0.234-4.764l-4.601,0.158h-0.549h-0.396h-0.234l-0.333,0.018l-5.879,0.291l-0.279,0.012l-1.062-3.015l3.188-7.144
			l0.829-4.444l0.945-2.537l0.702-8.574l-1.765-1.586l-4.133,1.907l-2.716-3.019l-0.549,0.174l-5.445-0.001l-0.617,0.151
			l-1.798-0.01l-0.667-0.158l-3.297,0.176l-2.303-0.069L73.865,79.4l-0.586,0.163l-3.183,0.011l0.073,11.813l-5.501,0.176
			l0.02,0.242l5.461,0.029l0.06,8.038l0.195,4.807l-3.27,0.594l-1.886-0.957l-2.693-0.475l-2.854-0.475h-1.296h-2.593l0.117,5.557
			l0.234,3.808l-0.117,2.694H53.21l-2.593-0.157l-5.069,0.478l-2.602-0.635l-5.546-1.586l-3.772-1.749l-0.478,1.429l-2.71-1.266
			l-0.117-2.064l0.117-5.079l-0.711-0.315l0.116,5.861l-0.239-0.155l-0.94-5.549l-1.035-0.163l-2.747-0.43l-0.576-0.091
			l-0.711-0.109l-2.225-0.777l-0.026,1.804l0.103,3.592l0.047,1.903l-4.757-1.44l-0.231-6.998l-6.699-1.449l-0.252-7.59l-3.544,0
			l-0.035-3.5l-0.48,0.112l-0.43,0.462l-0.775,1.096L4.1,91.591l-0.088,0.636l-0.003,0.687l-3.304-0.032l-0.083-4.434l-0.025-5.654
			L0.465,81.4l0.082-1.426l0.039-2.406l-0.244-2.82l0.004-0.945l0.123-0.704L0.333,58.093l0.14-0.601l-0.111-0.534l-0.058-7.409
			l-0.076-2.218l1.173-0.163L5.516,37.16L5.19,37.176l-1.781,3.619l-0.115-1.388l-3.072,0.297l-0.117-0.479l-0.003-1.748L0,37.169
			l5.337-0.5l0.805-1.432l0.344-0.239L6.262,23.975l0.377,0.002l1.584-0.322l0.264,4.297l-1.062,0.001l-0.113,2.201l0.325,3.853
			l0.013,0.773l3.892-4.263l0.242,3.147l5.208-0.01l0.566-0.135l0.146,1.72l5.652,0.008l-0.12-4.28l0.234-1.902L31.384,28.745z">
		</path>
		<path 
			id="edgewater" 
			name="Edgewater"
			d="M329.614,39.547l1.541,0.012l0.936-0.012l1.648-0.158h1.539l1.18,0.158l0.469,2.381l-0.117,2.859l0.352,3.653l-0.234,2.223
			l0.234,1.272l-0.703,0.157l0.469,1.902l4.016,5.403l1.18,0.636l-0.352,1.745l-0.242,5.081l0.594,1.587l-0.479,1.744l1.062,1.75
			l0.479-0.636l1.646,0.157l1.307,0.315l-2.836,1.114l-0.945,0.315l-0.828,0.321l-0.82,0.157h-0.945l-3.422,0.158h-1.773h-1.648
			h-1.062l-1.305,0.157h-1.531h-1.414l-1.422,0.164h-1.414h-4.25h-1.529l-2.721,0.157h-2.826v-1.271l0.117-1.587l-0.117-1.429
			l-0.234-1.429l0.117-1.429l-0.117-1.429v-1.429v-1.441l-0.117-1.417v-3.967v-2.538v-3.973l-0.08-1.569l-0.162-4.144l-0.01-1.914
			l-0.027-1.902l0.037-1.423l1.422-0.164h1.531l0.467,0.164h1.775l0.232-0.164l1.297-0.157h1.424l1.295-0.158h1.648h1.307h1.412
			h1.414H329.614z">
		</path>
</svg>
